<svg version="1.1" id="Layer_1" xmlns="http://www.w3.org/2000/svg" xmlns:xlink="http://www.w3.org/1999/xlink" x="0px" y="0px"
	 width="100%" viewBox="0 0 215 351" xml:space="preserve">
<path fill="none" opacity="0" stroke="none"
	d="
M96.000000,352.000000 
	C65.180069,352.000000 34.859951,351.954102 4.540501,352.074738 
	C1.674962,352.086151 0.906626,351.641876 0.909530,348.543213 
	C1.016932,233.927307 1.017234,119.311264 0.912196,4.695352 
	C0.909214,1.441438 1.808234,0.927122 4.801505,0.930992 
	C73.937500,1.020365 143.073669,1.021195 212.209656,0.928793 
	C215.229980,0.924757 216.088760,1.480277 216.085876,4.706508 
	C215.983276,119.322418 215.982437,233.938461 216.092804,348.554352 
	C216.095825,351.684662 215.282242,352.078949 212.448441,352.071198 
	C173.799179,351.965393 135.149551,352.000000 96.000000,352.000000 
z"/>
<path fill="#2E5030" opacity="1.000000" stroke="none" 
	d="
M167.760834,119.775673 
	C170.681610,127.603645 171.541809,135.693710 174.652267,143.253662 
	C178.794449,153.321182 184.543854,162.403702 190.808243,171.123367 
	C205.697296,191.848068 211.008743,215.166718 208.766632,240.016113 
	C206.104126,269.524628 193.100739,294.205811 169.136475,311.974823 
	C136.109665,336.463531 100.209686,339.139984 63.398170,321.843536 
	C39.345440,310.542023 23.521044,290.698883 14.061100,266.095184 
	C4.807980,242.029449 5.558230,217.612045 14.130115,193.526184 
	C18.660740,180.795731 26.291723,169.528076 33.579163,158.266663 
	C41.337563,146.277481 45.441727,133.234818 48.083023,119.432228 
	C50.116211,108.807442 53.159790,98.455353 59.707401,89.185226 
	C64.140320,86.411102 66.627457,86.688438 70.811981,90.536301 
	C72.913971,92.976295 71.892822,95.036240 70.840446,96.892624 
	C66.420135,104.690010 64.320000,113.326393 62.115005,121.851875 
	C60.942432,126.385574 60.727455,131.256989 60.859695,136.475922 
	C59.918526,138.594299 57.581375,139.195679 57.432304,141.826370 
	C53.734787,150.865753 50.598648,159.783340 45.043274,167.492050 
	C43.240772,169.993225 41.314884,172.401855 39.677521,175.434082 
	C39.543758,176.035995 39.491779,176.277084 39.340630,176.878021 
	C36.864212,178.775864 35.506519,180.796066 35.996704,184.119019 
	C34.647293,185.542480 34.199829,187.148483 32.736847,188.436920 
	C29.896975,193.207855 26.049803,197.143082 25.695904,202.806274 
	C25.443508,206.845169 24.164478,210.697708 22.957813,214.538956 
	C20.028811,223.863052 19.624582,233.230652 22.236675,242.707504 
	C23.563187,247.520172 24.298843,252.486847 25.761835,257.263428 
	C29.689865,270.088196 36.368717,281.326477 45.881271,290.765076 
	C49.269337,294.126770 52.083420,298.129761 56.681221,300.686279 
	C85.678062,324.223480 129.903320,324.388855 159.430679,301.398987 
	C170.445663,292.822784 178.860153,282.237549 185.917267,270.365753 
	C186.984573,268.570282 187.381470,266.717285 187.777328,264.394287 
	C199.661972,236.777527 197.969925,210.234451 182.800171,184.873886 
	C175.917068,173.366852 168.346985,162.231735 160.396774,150.952301 
	C159.035263,149.680054 158.556900,148.315460 157.942841,146.613205 
	C157.802658,145.732071 157.766891,145.219849 157.712311,144.313202 
	C157.595139,143.391205 157.521332,142.862045 157.367401,141.931488 
	C157.185028,140.977554 157.227432,140.436569 157.528473,139.505859 
	C157.214676,133.886887 154.595428,128.927307 155.919373,123.154030 
	C159.262283,119.772049 161.466492,121.234497 163.010605,124.570938 
	C165.115356,123.202377 163.444901,118.925217 167.760834,119.775673 
z"/>
<path fill="#2C4E2E" opacity="1.000000" stroke="none" 
	d="
M70.754150,92.365784 
	C67.480408,90.339294 64.252182,89.336433 60.390339,89.027084 
	C66.730545,79.038170 75.466965,71.458412 86.726128,67.072075 
	C91.483147,65.218842 96.435326,63.866547 101.631706,62.113873 
	C102.167458,61.757050 102.370308,61.572910 102.897552,61.139809 
	C106.659737,59.211151 110.020058,59.232620 113.560875,61.655201 
	C123.191368,64.604530 132.490707,67.308266 140.697830,72.865059 
	C147.352371,77.370644 152.988907,82.823151 157.672119,89.708603 
	C156.140884,92.910690 155.115372,95.917946 155.360626,99.323532 
	C155.531525,101.696808 154.689392,103.487854 151.469788,103.406357 
	C149.454391,102.617233 147.991699,101.582169 146.328461,100.245972 
	C146.090683,99.656891 146.027451,99.411697 145.833862,98.813957 
	C145.342697,97.816826 145.078812,97.126015 144.582382,96.149452 
	C137.865768,86.776619 129.954178,79.886650 117.728424,79.259766 
	C116.194908,79.158836 114.916771,78.970009 114.101700,78.241829 
	C110.406143,74.940254 106.788315,75.556099 102.722443,78.189865 
	C93.933052,77.850334 87.288643,82.035667 80.615936,86.385727 
	C77.441719,88.455078 75.497307,92.464134 70.754150,92.365784 
z"/>
<path fill="#305233" opacity="1.000000" stroke="none" 
	d="
M151.102417,102.010475 
	C152.759247,100.640793 152.689896,99.042862 152.399780,97.395882 
	C151.720078,93.537300 153.241501,91.099747 157.425659,90.098099 
	C161.599121,94.755821 163.566788,100.318237 164.985764,106.521408 
	C165.156982,107.070992 165.293823,107.239769 165.622940,107.671707 
	C166.213470,110.337364 166.611740,112.739853 167.039627,115.551994 
	C167.012283,116.534561 167.087875,117.074730 167.625183,117.768005 
	C167.848450,118.433937 167.906174,118.873581 168.003937,119.643494 
	C166.312759,123.123505 166.097336,126.588707 165.902283,130.068161 
	C165.847610,131.043427 165.782013,132.218567 164.635269,132.534012 
	C163.265350,132.910843 162.560165,131.822723 161.924179,130.847000 
	C160.403824,128.514496 160.759506,125.260780 157.985840,123.188950 
	C156.373566,123.157791 155.715240,122.286652 154.973587,120.956177 
	C154.559845,119.538101 154.472641,118.465469 154.120270,117.034981 
	C152.370377,112.749130 151.883392,108.475998 150.091537,104.618553 
	C149.683258,103.739601 149.566879,102.677315 151.102417,102.010475 
z"/>
<path fill="#603B28" opacity="1.000000" stroke="none" 
	d="
M113.866455,61.500259 
	C110.496307,63.111855 107.175262,62.327991 103.446640,61.809074 
	C101.885826,58.176891 102.803040,54.487373 102.326691,50.462952 
	C102.617935,48.813320 102.969414,47.528915 103.501060,46.324009 
	C104.379601,44.332935 105.946701,43.060261 108.158867,43.241116 
	C110.369270,43.421829 112.183815,44.268265 113.068634,46.725227 
	C114.771072,51.452595 113.691925,56.268139 113.866455,61.500259 
z"/>
<path fill="#69543F" opacity="1.000000" stroke="none" 
	d="
M102.134392,50.516880 
	C103.350159,53.607586 102.828468,57.283386 103.032501,61.330482 
	C102.864456,61.798840 102.686661,61.840618 102.236740,61.911789 
	C102.004166,58.284706 102.043716,54.628231 102.134392,50.516880 
z"/>
<path fill="#2E5030" opacity="1.000000" stroke="none" 
	d="
M167.804443,117.709579 
	C167.520691,117.444443 167.250656,116.894585 167.024933,116.153183 
	C167.318893,116.449387 167.568527,116.937126 167.804443,117.709579 
z"/>
<path fill="#2E5030" opacity="1.000000" stroke="none" 
	d="
M165.755920,107.715820 
	C165.625961,107.715622 165.444565,107.490028 165.145599,107.080154 
	C165.300430,107.038078 165.525925,107.236259 165.755920,107.715820 
z"/>
<path fill="#719B57" opacity="1.000000" stroke="none" 
	d="
M147.534241,96.740082 
	C147.977676,97.011787 148.082794,97.322327 148.092590,97.485954 
	C151.378784,103.721291 150.433945,110.705238 152.331879,117.456818 
	C152.370544,119.471329 152.306412,121.105423 151.961197,123.063858 
	C149.934204,127.414818 151.691589,131.397385 152.073502,135.371323 
	C152.212524,136.817886 153.423508,137.731354 154.955963,137.172562 
	C157.425125,136.272217 158.506134,137.741226 159.752563,139.753723 
	C160.017792,140.341797 160.043045,140.687958 160.044235,141.293488 
	C160.131470,141.926056 160.312317,142.262711 160.756134,142.774261 
	C161.028580,143.385178 161.098480,143.789398 161.209122,144.498596 
	C160.644226,146.632248 161.552124,147.779800 163.311371,148.799530 
	C169.097015,160.569504 177.103333,170.648666 183.849884,181.511108 
	C200.284500,207.972031 202.442657,235.694153 190.340561,264.773010 
	C188.837341,266.178802 187.161545,266.823608 186.769669,268.915344 
	C186.464005,270.546844 185.467728,272.253418 183.329742,271.777771 
	C181.394791,271.347321 180.634125,269.849640 180.405884,267.849701 
	C180.215256,266.179138 180.573685,264.479004 180.840271,263.022858 
	C181.114700,261.523895 181.199600,260.370148 180.304993,258.660522 
	C179.329254,257.471375 179.004257,256.556732 179.087616,255.065399 
	C186.347504,229.588806 182.839050,206.224503 168.221832,184.615387 
	C164.680054,179.379486 160.961578,174.268951 157.592926,168.909119 
	C149.851349,156.591614 145.142471,143.217468 143.097046,128.848495 
	C142.699005,126.052361 142.077927,123.285118 141.492722,120.137024 
	C141.186646,117.889565 140.501724,116.070587 140.723953,113.777359 
	C140.824554,113.185097 140.883911,112.950386 141.054337,112.367271 
	C141.393707,111.581749 141.624237,111.145805 142.042511,110.383980 
	C143.727875,108.115959 144.155975,106.005165 143.145416,103.290787 
	C142.222168,100.255119 139.927261,97.397446 144.653030,95.545998 
	C145.833923,95.855515 146.471542,96.141487 147.534241,96.740082 
z"/>
<path fill="#6C9958" opacity="1.000000" stroke="none" 
	d="
M182.638550,256.691345 
	C182.799271,259.579224 182.612396,262.219666 182.434677,264.860687 
	C182.356247,266.026245 182.167465,267.395782 183.212128,268.094452 
	C184.739899,269.116180 185.083466,267.314392 185.809830,266.602051 
	C186.828354,265.603180 188.044861,265.236938 189.757141,265.076721 
	C183.142868,284.401093 169.934631,298.557068 152.651825,309.024231 
	C122.614265,327.216217 82.656120,324.888336 56.141552,303.484924 
	C52.249283,299.371582 55.242989,295.855835 56.758102,291.890442 
	C59.174145,289.517975 61.185730,290.355530 63.306412,291.711060 
	C71.040886,296.654877 79.016075,301.121765 88.308670,303.708862 
	C89.161102,303.938141 89.648132,304.061249 90.499786,304.258850 
	C91.346802,304.441193 91.831253,304.540314 92.673470,304.729614 
	C93.266312,304.891113 93.501999,304.959534 94.087273,305.131348 
	C94.669868,305.292786 94.902878,305.350769 95.486191,305.479584 
	C99.693031,306.903168 103.930267,306.474182 107.191414,310.420044 
	C109.281258,312.948669 110.074196,308.836182 111.438698,307.117126 
	C112.985001,306.540985 114.250893,306.556488 115.889282,306.514771 
	C118.364441,306.613647 120.423241,305.976868 122.534210,307.273193 
	C124.739662,308.627563 127.103432,307.327362 129.138870,306.311737 
	C132.857513,304.456299 136.828766,303.512207 140.748032,302.273376 
	C146.448120,300.471619 151.437729,297.260132 153.944946,290.844177 
	C154.391098,290.348846 154.600784,290.184845 155.134689,289.797852 
	C156.009186,289.215973 156.532196,288.622803 157.158081,288.609985 
	C163.075195,288.488312 165.339966,284.884918 166.106155,279.271606 
	C166.466583,278.732941 166.613770,278.519440 166.998169,277.992279 
	C173.338745,275.941223 176.388672,270.588928 175.394470,263.259766 
	C177.167160,260.712433 177.638229,257.606720 181.066193,256.431061 
	C181.740219,256.337067 182.017441,256.390594 182.638550,256.691345 
z"/>
<path fill="#6D9B5A" opacity="1.000000" stroke="none" 
	d="
M146.207443,96.808273 
	C143.649841,98.744858 144.657150,101.070663 144.950500,103.626823 
	C144.476852,105.026215 143.745865,105.718384 142.090942,105.485870 
	C138.637054,102.321724 135.651291,99.096962 132.436600,96.108223 
	C127.600174,91.611740 122.909187,86.773323 115.411919,87.463135 
	C114.372795,87.558754 113.415245,87.174393 112.808044,86.269768 
	C112.080620,85.186043 110.660805,84.742516 109.869789,85.026428 
	C104.944183,86.794350 99.706665,87.068893 94.718544,88.430283 
	C89.554199,89.839775 86.014877,93.974770 81.643303,96.726402 
	C79.618889,98.000648 80.780350,99.934914 81.488556,102.005417 
	C81.490280,102.662483 81.426590,102.919319 81.191147,103.527267 
	C74.207581,109.966995 71.303123,117.701294 71.522804,126.697433 
	C71.581985,129.121078 70.550514,130.788589 68.474854,131.775848 
	C67.004379,132.475266 66.100006,131.649887 65.653427,130.226440 
	C65.473785,129.586517 66.445152,130.120773 65.782036,130.189468 
	C65.610184,130.207275 65.543594,130.356247 65.628624,130.621506 
	C68.249939,138.799057 64.636162,145.336624 59.956646,151.488968 
	C58.898857,152.879669 57.893505,153.503067 59.069122,155.619217 
	C61.019272,159.129547 59.623451,164.164093 56.122265,166.261749 
	C54.134384,167.452759 53.315800,168.884415 53.510166,170.767075 
	C53.779881,173.379547 52.160610,174.995651 50.874550,176.717957 
	C49.677830,178.320618 48.294746,179.758392 47.535812,182.038208 
	C47.284039,182.562943 47.159832,182.760483 46.733318,183.133896 
	C44.532928,183.572464 42.316467,184.968109 41.135376,182.233917 
	C39.994099,179.591949 41.470905,177.917526 43.060173,177.103012 
	C41.500614,178.390594 39.436050,178.764969 37.492577,176.017487 
	C38.969654,171.338638 42.120766,168.030548 44.532684,164.278351 
	C48.961174,157.389038 52.434391,150.052490 55.574883,142.146240 
	C58.141678,140.674118 58.218227,138.728317 57.330566,136.270920 
	C58.071037,131.110825 59.219765,126.240433 59.946392,121.307854 
	C61.449780,111.102356 65.033180,101.697601 70.360443,92.518478 
	C78.634544,83.437614 88.074448,76.886726 100.622299,75.043213 
	C106.769478,74.980324 112.527878,74.728966 118.628006,75.906387 
	C130.790009,78.292847 139.987228,84.548416 146.908218,94.674294 
	C146.549164,95.457115 146.697968,96.109810 146.207443,96.808273 
z"/>
<path fill="#739E5B" opacity="1.000000" stroke="none" 
	d="
M59.132900,291.700867 
	C58.656376,295.686462 55.827892,298.610687 55.955982,302.822144 
	C27.945862,284.705566 13.629329,247.127136 21.085720,211.787201 
	C22.911972,203.131577 25.439148,194.731827 30.250549,186.821747 
	C34.960213,186.211807 38.310852,189.016357 37.685116,193.310242 
	C36.738838,199.803711 36.110363,206.290024 35.997459,213.280090 
	C35.538628,215.418381 35.186001,217.126251 34.678768,219.221283 
	C34.309875,220.909348 34.527279,222.500458 33.568020,223.404266 
	C29.326481,227.400574 30.704628,232.901627 29.786572,237.705688 
	C29.207680,240.734940 32.270184,243.017563 33.780769,245.565018 
	C34.465015,246.718918 35.138821,247.782425 35.444359,249.465698 
	C35.595379,250.312225 35.692017,250.788483 35.887878,251.602158 
	C36.955711,253.795456 36.452248,256.162201 38.206821,258.089233 
	C38.530380,258.545410 38.658684,258.727234 38.992882,259.170471 
	C39.760376,260.128632 40.092068,260.939636 40.463478,262.090973 
	C40.634777,262.608398 40.708309,262.814331 40.904037,263.326202 
	C41.204128,264.041779 41.390446,264.447571 41.751205,265.151215 
	C46.160675,273.048004 51.043098,280.164032 57.245598,286.332520 
	C58.568413,287.648132 60.626907,288.880798 59.132900,291.700867 
z"/>
<path fill="#709C5E" opacity="1.000000" stroke="none" 
	d="
M149.755859,118.243317 
	C146.508850,111.768265 149.397430,104.932457 148.114914,98.072769 
	C149.585114,98.513954 150.323196,99.990211 151.339096,101.683167 
	C153.075699,106.402763 154.640457,110.818565 156.377655,115.528702 
	C158.059586,116.564766 158.039322,117.806641 157.368256,119.577576 
	C157.213837,120.794449 157.335754,121.604675 157.576538,122.698364 
	C157.599808,128.509064 159.705856,133.706665 160.054993,139.576797 
	C157.568695,139.373291 155.957748,140.031876 154.801407,142.476501 
	C153.544037,145.134659 152.009323,144.441269 151.120117,142.090576 
	C148.877884,136.163177 148.180313,129.937973 147.902924,123.325897 
	C149.587585,121.854362 148.522797,119.829231 149.755859,118.243317 
z"/>
<path fill="#759D55" opacity="1.000000" stroke="none" 
	d="
M33.279114,214.067627 
	C31.559839,211.195694 32.673309,208.630875 33.567707,205.958359 
	C35.792355,199.310913 37.735596,192.625183 30.722906,186.883469 
	C31.020041,185.497269 31.556425,184.423065 32.295685,183.121155 
	C35.176517,181.510681 36.231632,178.926682 37.447651,176.030060 
	C37.569424,175.688461 37.517612,175.715881 37.503685,175.692291 
	C40.167374,175.968140 42.267532,175.284439 43.604965,172.659897 
	C44.311886,171.272644 45.457764,169.240143 47.291519,170.455414 
	C49.361851,171.827469 47.637772,173.622849 46.833309,175.165878 
	C45.890778,176.973755 43.444752,178.105743 44.168575,180.623337 
	C44.355095,181.272095 45.300785,181.702576 46.210396,182.378189 
	C48.748974,183.855423 47.883686,185.517578 46.968735,187.127487 
	C42.592270,194.828110 38.969662,202.848007 36.533215,211.384140 
	C36.127045,212.807159 35.803654,214.431900 33.279114,214.067627 
z"/>
<path fill="#759D55" opacity="1.000000" stroke="none" 
	d="
M57.018024,136.373718 
	C58.702305,138.227982 60.749256,140.505661 56.057331,141.901276 
	C56.152546,140.146576 56.537579,138.442307 57.018024,136.373718 
z"/>
<path fill="#6D9B5A" opacity="1.000000" stroke="none" 
	d="
M37.278305,175.834137 
	C37.679359,178.992920 36.360813,181.405228 32.853256,182.782700 
	C33.654217,180.367813 34.936821,177.924591 37.278305,175.834137 
z"/>
<path fill="#305233" opacity="1.000000" stroke="none" 
	d="
M164.163803,140.149643 
	C165.281601,139.700653 165.917740,140.038269 165.917252,141.053772 
	C165.917114,141.356201 165.333679,141.920761 165.029770,141.912537 
	C164.031464,141.885513 163.670258,141.265167 164.163803,140.149643 
z"/>
<path fill="#709C5E" opacity="1.000000" stroke="none" 
	d="
M163.513931,148.584976 
	C161.888000,148.376907 160.306854,147.724823 161.134033,145.092072 
	C161.967255,145.954590 162.684647,147.105606 163.513931,148.584976 
z"/>
<path fill="#709C5E" opacity="1.000000" stroke="none" 
	d="
M160.881454,142.699249 
	C160.747559,142.666687 160.536438,142.352432 160.172745,141.795517 
	C160.281525,141.841080 160.542877,142.129318 160.881454,142.699249 
z"/>
<path fill="#669863" opacity="1.000000" stroke="none" 
	d="
M118.701904,75.693665 
	C113.267120,76.537788 107.518806,76.189827 101.404205,75.177826 
	C106.842331,73.675697 112.614639,74.048950 118.701904,75.693665 
z"/>
<path fill="#709C5E" opacity="1.000000" stroke="none" 
	d="
M146.319519,97.001999 
	C146.226959,96.496033 146.466125,95.992676 146.845032,95.248070 
	C147.280289,95.489349 147.575806,95.971878 147.924500,96.733093 
	C147.535522,97.009392 147.093369,97.006989 146.319519,97.001999 
z"/>
<path fill="#2E5030" opacity="1.000000" stroke="none" 
	d="
M157.303558,119.794464 
	C156.908356,118.882355 156.724792,117.780487 156.545654,116.250832 
	C157.966888,116.804100 159.086624,117.860992 157.303558,119.794464 
z"/>
<path fill="#E4CD54" opacity="1.000000" stroke="none" 
	d="
M32.888969,214.381592 
	C35.905434,203.109802 40.133205,192.721268 46.398308,182.843094 
	C46.523056,182.523056 46.521008,182.348007 46.437237,182.322632 
	C47.490570,178.690277 50.599648,176.401367 52.394798,173.211441 
	C58.917431,161.620972 62.706341,148.976456 67.313835,136.601379 
	C70.757233,127.352875 70.794411,117.356461 74.984856,108.416626 
	C75.961449,106.333183 76.471397,104.042702 78.782242,102.336197 
	C79.088394,102.068733 79.005135,101.998848 79.044083,102.035599 
	C82.322411,93.076256 90.254486,89.942886 98.249695,87.169891 
	C99.971764,86.572624 102.049850,86.261009 104.000824,85.958946 
	C121.380180,83.268105 135.457260,94.729874 142.638412,109.002350 
	C142.864853,109.642456 142.960678,109.894608 143.182922,110.527512 
	C143.297409,111.174561 143.285477,111.440880 142.950714,111.943176 
	C142.627869,112.179153 142.659027,112.595421 142.742401,112.786758 
	C144.543625,114.347214 143.908905,116.453781 144.297821,118.560074 
	C146.010513,140.874466 153.658203,160.538452 166.972229,178.119431 
	C183.865570,200.426834 189.639297,225.206284 182.727264,252.996719 
	C182.839005,254.543716 182.114746,255.417389 181.511307,256.663666 
	C180.486481,258.870392 179.648254,260.811249 178.755310,263.069733 
	C177.044769,269.570374 173.092056,274.424133 169.087311,279.641296 
	C168.761627,279.846283 168.819275,279.873108 168.821838,279.841431 
	C166.139816,284.753693 162.040176,288.341949 157.233704,291.748230 
	C156.906693,291.930115 156.964584,291.959381 156.952911,291.929138 
	C150.732834,298.225708 143.066467,302.156891 134.936096,305.347931 
	C129.397278,307.521851 123.803108,309.416199 117.391434,309.300171 
	C115.605736,309.196930 114.188332,309.253693 112.353241,309.394958 
	C110.048264,310.934448 108.158325,311.129517 105.846680,310.198608 
	C102.039062,308.665344 97.760139,309.970978 93.509056,308.257629 
	C93.144379,307.930939 93.080193,307.867554 92.733795,307.793701 
	C91.870552,307.568909 91.353706,307.417908 90.435089,307.219971 
	C89.566208,307.437042 89.069984,307.514343 88.292145,307.111664 
	C77.878387,303.336426 68.500191,298.327484 59.343697,292.153778 
	C51.951935,284.390533 44.747124,276.842010 39.696362,267.219543 
	C38.603783,266.697815 38.502644,265.889923 38.141960,264.807617 
	C38.021076,264.440521 38.193176,264.280396 38.186142,264.163086 
	C37.064651,263.510468 37.106533,262.226654 36.269260,261.125854 
	C36.079243,260.862762 36.070606,260.946228 36.112335,260.950500 
	C34.607105,258.653839 34.340023,255.885117 33.258636,253.009552 
	C33.116638,252.281891 33.097820,251.913651 33.015087,251.275787 
	C29.415607,240.746323 29.424475,230.312332 31.710987,219.383270 
	C32.303490,217.571838 32.602345,216.158051 32.888969,214.381592 
z"/>
<path fill="#6C9E60" opacity="1.000000" stroke="none" 
	d="
M140.772034,104.298050 
	C142.128082,104.027710 143.172409,104.013283 144.608368,103.994240 
	C145.925858,106.244965 145.402756,108.338951 144.140778,110.668411 
	C143.772217,111.145988 143.552643,111.322395 142.910645,111.492691 
	C142.488205,111.486580 142.486359,111.295776 142.581451,111.287987 
	C142.382233,108.891685 140.558472,107.007111 140.772034,104.298050 
z"/>
<path fill="#759D55" opacity="1.000000" stroke="none" 
	d="
M149.744949,118.219948 
	C149.932236,119.646957 149.864594,121.302200 148.257874,122.763214 
	C148.070343,121.334442 148.156631,119.686737 149.744949,118.219948 
z"/>
<path fill="#759D55" opacity="1.000000" stroke="none" 
	d="
M144.255875,118.612015 
	C143.699692,117.206299 143.262939,115.481339 142.825974,113.367241 
	C144.802536,114.323906 145.115143,116.154915 144.255875,118.612015 
z"/>
<path fill="#7F9D4A" opacity="1.000000" stroke="none" 
	d="
M181.739105,256.937683 
	C181.666672,255.890549 182.008652,254.851578 182.547150,253.599060 
	C182.809204,254.275742 182.874695,255.165985 182.961304,256.497375 
	C182.706116,256.940948 182.429810,256.943359 181.739105,256.937683 
z"/>
<path fill="#759D55" opacity="1.000000" stroke="none" 
	d="
M142.485703,111.667267 
	C142.736786,111.394600 142.985382,111.302620 143.612885,111.090111 
	C143.693756,111.241745 143.395721,111.513908 142.862778,111.982613 
	C142.627869,112.179153 142.483200,111.847961 142.485703,111.667267 
z"/>
<path fill="#7F9D4A" opacity="1.000000" stroke="none" 
	d="
M117.393517,309.270996 
	C131.647629,307.019989 144.614059,301.063324 156.624573,292.030457 
	C154.896667,296.932831 150.058960,299.103760 145.930145,301.484344 
	C139.502487,305.190430 132.331757,307.539185 125.142296,309.540588 
	C122.744514,310.208099 120.210617,310.143433 117.393517,309.270996 
z"/>
<path fill="#7F9D4A" opacity="1.000000" stroke="none" 
	d="
M93.377754,308.205963 
	C99.076927,308.808563 105.040985,309.282379 111.487045,309.403229 
	C111.670967,311.577362 110.159607,313.451233 108.440193,312.573578 
	C103.716606,310.162384 98.266945,310.809570 93.377754,308.205963 
z"/>
<path fill="#7F9D4A" opacity="1.000000" stroke="none" 
	d="
M169.101715,279.752441 
	C171.906372,274.527100 175.051117,269.207916 178.448227,263.638062 
	C178.532608,270.471680 174.405670,275.303223 169.101715,279.752441 
z"/>
<path fill="#7F9D4A" opacity="1.000000" stroke="none" 
	d="
M157.264008,291.884552 
	C160.695358,288.014709 164.484039,284.099304 168.548569,279.996826 
	C167.343903,285.918549 162.939209,289.304016 157.264008,291.884552 
z"/>
<path fill="#7F9D4A" opacity="1.000000" stroke="none" 
	d="
M88.217499,306.931305 
	C88.487785,306.869934 88.935936,306.921692 89.708710,307.073242 
	C89.487343,307.130157 88.941353,307.087280 88.217499,306.931305 
z"/>
<path fill="#7F9D4A" opacity="1.000000" stroke="none" 
	d="
M92.482834,307.766113 
	C92.387405,307.719879 92.829796,307.746460 92.913445,307.824585 
	C92.997093,307.902679 92.578255,307.812378 92.482834,307.766113 
z"/>
<path fill="#759D55" opacity="1.000000" stroke="none" 
	d="
M78.758591,102.184273 
	C74.199333,110.426933 72.490273,119.713120 71.048111,129.111221 
	C67.997040,148.994080 59.359001,166.361526 46.639042,182.138733 
	C46.130726,179.926758 47.426220,178.217941 48.803993,176.510406 
	C50.056046,174.958694 51.567314,173.327393 51.378639,171.259079 
	C51.064369,167.813965 52.153023,165.581451 55.430161,164.192062 
	C57.233414,163.427551 58.087952,161.608231 57.607029,159.607010 
	C57.074093,157.389374 55.296009,158.424103 53.905872,158.419891 
	C51.577953,158.412811 51.533802,156.964600 52.256195,155.370209 
	C53.141056,153.417221 54.164368,151.608429 55.992561,150.208481 
	C61.632057,145.890060 64.233963,140.067322 64.011383,132.948242 
	C63.914146,129.838181 63.995033,126.722534 63.995033,123.588646 
	C65.787872,123.251984 65.781349,124.763885 66.325294,125.670616 
	C66.946358,126.705933 66.780693,128.769012 68.607193,128.305634 
	C70.096054,127.927925 69.962578,126.110443 69.911560,124.843254 
	C69.633041,117.924866 73.121727,112.041962 75.056366,105.737343 
	C75.564865,104.080223 76.761696,102.913483 78.758591,102.184273 
z"/>
<path fill="#759D55" opacity="1.000000" stroke="none" 
	d="
M140.946564,103.723267 
	C141.727783,106.169838 142.952972,108.148018 142.710220,110.887695 
	C141.467697,110.506165 141.131424,109.172409 140.542664,107.991692 
	C127.882996,82.603806 97.254814,79.426453 79.344650,101.868935 
	C79.008781,101.578514 79.059059,101.019829 78.840866,100.600990 
	C76.850830,96.780830 76.414696,94.347939 82.247040,94.046303 
	C84.612366,93.923981 86.745552,90.878494 89.138428,89.415039 
	C95.098633,85.769814 102.089684,84.395370 108.638206,83.838737 
	C114.007896,83.382301 120.181221,85.657806 125.104973,88.353828 
	C131.472626,91.840492 136.747299,97.158226 140.946564,103.723267 
z"/>
<path fill="#759D55" opacity="1.000000" stroke="none" 
	d="
M26.110500,213.785156 
	C28.525047,211.115448 29.061892,213.930511 28.679892,214.767853 
	C25.292974,222.191986 27.167402,230.787903 22.982857,238.049973 
	C24.008724,230.040604 19.180378,221.407837 26.110500,213.785156 
z"/>
<path fill="#759D55" opacity="1.000000" stroke="none" 
	d="
M31.737823,219.235031 
	C30.808393,229.415863 31.850063,239.769897 33.007885,250.562119 
	C25.678959,240.817245 27.720644,230.190948 31.737823,219.235031 
z"/>
<path fill="#759D55" opacity="1.000000" stroke="none" 
	d="
M29.482708,201.717728 
	C27.267399,201.606262 27.254885,200.354721 27.818836,198.938751 
	C28.082960,198.275620 28.841211,197.905319 29.459499,198.305405 
	C30.897247,199.235764 30.844873,200.421036 29.482708,201.717728 
z"/>
<path fill="#759D55" opacity="1.000000" stroke="none" 
	d="
M33.141548,253.065704 
	C34.868893,254.866455 35.921909,257.352997 36.139538,260.565979 
	C33.452293,259.147339 33.358524,256.290741 33.141548,253.065704 
z"/>
<path fill="#759D55" opacity="1.000000" stroke="none" 
	d="
M36.157642,261.182587 
	C37.157276,261.375916 37.724815,262.288208 38.116158,263.716614 
	C37.240910,263.419922 36.525463,262.623901 36.157642,261.182587 
z"/>
<path fill="#759D55" opacity="1.000000" stroke="none" 
	d="
M38.170815,264.775879 
	C38.428120,265.053436 38.835159,265.666321 39.359047,266.634949 
	C39.090778,266.364197 38.705662,265.737701 38.170815,264.775879 
z"/>
<path fill="#7F452E" opacity="1.000000" stroke="none" 
	d="
M126.801949,179.747116 
	C127.153709,179.932037 127.594315,179.996048 127.804054,180.070633 
	C130.248047,181.950333 132.658829,183.429779 135.787140,184.318176 
	C137.794800,184.712646 138.951385,186.061981 140.823700,186.736938 
	C141.137711,186.893204 141.079117,186.918793 141.085999,186.887573 
	C141.811981,187.896408 142.827652,188.700409 143.631927,190.156219 
	C155.762634,206.046448 156.947586,226.796875 146.958542,243.983032 
	C138.432495,258.652130 126.425537,268.573273 109.460976,271.867889 
	C107.657997,272.217987 105.867165,272.566132 103.668610,271.885620 
	C102.419380,269.105896 100.989029,267.347290 97.933296,266.812439 
	C92.024254,265.778137 87.119507,262.735382 83.189056,258.200134 
	C80.601898,255.214859 77.687424,253.538483 73.560234,254.882278 
	C71.800446,255.455261 70.056519,255.178955 68.969940,253.257004 
	C67.937431,251.430710 67.260986,249.505020 68.671165,247.733780 
	C71.024254,244.778259 71.928116,241.381271 72.894119,237.808548 
	C74.129974,233.237793 79.088440,233.052490 82.565117,231.951401 
	C94.802551,228.075684 95.450035,227.266479 91.176056,215.455109 
	C91.067986,215.156479 91.139160,214.806488 91.357315,214.100327 
	C91.880341,212.982681 92.237228,212.235214 93.090256,211.314789 
	C98.191284,210.932419 98.608963,211.220016 98.714897,204.510361 
	C98.784081,200.128647 96.934166,196.343674 94.970657,192.600143 
	C94.508186,191.718430 93.882530,190.924835 93.453293,190.026825 
	C92.462517,187.953979 92.178413,185.738525 93.724091,183.933243 
	C95.521393,181.834091 97.624634,183.578903 99.590744,183.975189 
	C97.634651,183.306381 94.954727,183.118027 95.135925,180.328995 
	C95.312622,177.609436 97.975334,178.104340 99.864517,177.423645 
	C109.105431,174.094177 117.624809,178.529129 126.801949,179.747116 
z"/>
<path fill="#583327" opacity="1.000000" stroke="none" 
	d="
M103.717255,269.705688 
	C138.022446,266.491058 159.586594,232.205566 147.807190,200.164429 
	C146.558197,196.767014 144.523163,193.658569 142.708298,190.060913 
	C142.842697,189.638687 143.121597,189.571609 143.775986,189.714661 
	C150.308548,195.039261 155.738983,200.734558 158.901855,208.642044 
	C158.967636,208.989014 158.633636,209.321732 158.633636,209.321732 
	C158.633636,209.321732 158.914124,209.700653 159.138535,209.772797 
	C159.690475,210.479370 160.018005,211.113815 160.367767,212.018143 
	C160.711517,213.653976 160.946594,215.042068 161.665024,216.637207 
	C162.210251,218.054382 162.525757,219.199509 162.829468,220.702972 
	C163.365036,224.481003 162.508926,227.974289 163.577896,231.715149 
	C163.816803,232.780502 163.836411,233.508820 163.768890,234.592438 
	C162.675705,236.287094 163.115921,237.857773 162.957642,239.660751 
	C162.816269,240.861237 162.697144,241.737228 162.417999,242.905716 
	C160.185318,244.269226 161.546982,246.635803 160.524689,248.443176 
	C160.310928,249.765350 159.994705,250.708755 159.481750,251.879318 
	C158.765610,252.263031 158.387619,252.585388 158.191956,253.458038 
	C158.350815,254.135651 158.322128,254.413666 158.005463,254.840927 
	C156.856445,256.117737 156.293121,257.514557 155.434647,259.061249 
	C155.398941,259.377197 155.333725,259.218964 155.412842,259.186371 
	C154.650085,259.231323 154.527847,259.871002 154.296967,260.826874 
	C154.129883,261.445648 154.007156,261.725677 153.629822,262.123535 
	C152.917664,262.262878 152.476288,262.462921 152.270386,263.230957 
	C152.408890,263.584961 152.487854,263.473907 152.543350,263.513428 
	C150.503662,264.564148 149.525818,266.537323 148.206741,268.700378 
	C147.990326,268.997681 147.996521,268.996338 147.996933,268.993347 
	C147.420471,269.475159 146.674072,269.779968 146.160858,270.749939 
	C145.967728,270.962341 145.999390,271.000000 145.980804,270.983521 
	C145.541733,271.502258 144.809341,271.468597 144.311279,272.190002 
	C144.307053,272.510040 144.324234,272.421417 144.368546,272.430054 
	C142.765991,272.717560 141.849701,274.216614 140.447449,275.175232 
	C140.487595,275.513458 140.417465,275.473419 140.435791,275.509399 
	C139.638184,275.273865 139.364807,275.861176 138.997238,276.727600 
	C138.821838,277.224365 138.721558,277.411865 138.344162,277.758514 
	C137.423065,278.044525 136.861969,278.343750 136.064117,278.898285 
	C133.703552,279.731476 131.589966,280.336304 129.797150,282.261871 
	C129.359695,282.613831 129.163437,282.730042 128.627014,282.911377 
	C127.314705,283.011322 126.418083,283.285095 125.257309,283.967407 
	C124.680145,284.225342 124.450958,284.339874 123.926514,284.710571 
	C115.485336,286.217987 107.347771,287.199554 99.129974,285.412170 
	C96.705910,284.884949 94.437607,284.013672 91.775467,283.186218 
	C90.647072,283.530914 89.896835,283.538269 88.811295,283.160828 
	C87.050667,280.861145 84.410873,280.784302 82.226059,279.248230 
	C81.967003,279.007843 82.002884,278.978760 82.002411,279.001831 
	C81.341393,278.163849 80.347755,277.818207 79.152359,277.215698 
	C78.878273,277.070709 78.954391,277.045532 78.966957,277.083618 
	C78.481560,276.417755 77.828957,275.880127 76.810684,275.445374 
	C76.496017,275.493469 76.610420,275.481476 76.616364,275.538696 
	C73.649857,272.447662 70.521423,269.460907 66.930061,266.511597 
	C66.703720,266.321930 66.837296,266.201385 66.767212,266.256775 
	C66.524223,264.957214 65.196541,264.416809 64.161987,263.291351 
	C63.905407,263.105316 63.970264,263.036438 63.932011,263.063721 
	C62.497669,260.564880 61.115391,258.031097 59.814739,255.454254 
	C59.092972,254.024277 58.214375,252.591629 59.845871,250.820786 
	C61.978054,249.844452 63.361198,250.492905 64.711464,251.678024 
	C66.453674,253.207138 68.407127,254.480865 70.137276,256.034546 
	C77.965721,263.064514 87.322273,266.448517 97.645836,267.455719 
	C99.755753,267.661530 101.914238,267.565643 103.717255,269.705688 
z"/>
<path fill="#7C432B" opacity="1.000000" stroke="none" 
	d="
M103.948074,269.622559 
	C86.775101,271.369995 73.325249,263.792694 61.331894,251.912567 
	C55.254364,249.158005 55.619640,243.246750 53.995293,238.475052 
	C53.675144,237.534576 53.896980,236.235977 53.536083,234.721817 
	C51.734791,227.953522 52.954826,221.767120 54.805397,215.261139 
	C57.947926,208.664612 60.729523,202.324661 64.749542,196.208221 
	C64.991219,195.578949 65.138657,195.328918 65.570038,195.024078 
	C68.236641,193.032257 70.302338,190.728882 72.609772,188.180237 
	C72.814697,187.897064 72.820900,187.823547 72.857666,187.826630 
	C75.381020,186.777374 77.451981,185.101944 79.712433,183.125580 
	C79.910294,182.837234 79.904282,182.905777 79.870247,182.900787 
	C80.743309,182.461853 81.708450,182.140915 82.748299,181.321152 
	C93.146133,176.217148 103.787125,174.347397 115.035713,175.858780 
	C119.145622,176.410995 122.848297,178.125259 126.947220,179.613892 
	C121.060707,180.702438 115.427368,177.945068 109.441925,177.604843 
	C106.137085,177.416977 103.213875,178.151840 100.204216,179.036804 
	C99.255890,179.315643 98.106476,179.641434 98.465416,180.980392 
	C98.749763,182.041153 99.768593,182.404297 100.788597,182.586243 
	C102.701973,182.927628 104.336510,181.890884 106.104591,181.511154 
	C106.918907,181.336243 107.975349,181.134735 108.346916,182.016830 
	C108.890999,183.308441 107.674347,183.853607 106.784256,184.046310 
	C104.688614,184.499985 102.548370,184.861069 100.410515,184.981445 
	C96.603394,185.195877 94.679207,185.963745 97.028923,190.387787 
	C99.454178,194.954071 100.140160,200.209473 100.605400,205.317062 
	C100.916298,208.730087 99.994385,212.048508 95.389366,212.933304 
	C93.159691,212.144333 93.092445,210.863358 93.522095,208.932480 
	C94.969780,202.426666 93.675362,198.600800 89.613922,196.171326 
	C85.642937,193.795975 80.525185,194.672592 75.787895,198.592499 
	C72.471680,201.336502 70.067642,204.623383 69.694778,209.097900 
	C69.066879,216.632950 74.370857,221.142883 81.727211,219.252335 
	C84.502930,218.538986 86.946442,217.098160 89.318848,215.521332 
	C90.502510,214.734604 91.572075,213.316620 93.605370,214.623138 
	C94.413544,216.342148 94.787109,217.968445 95.413170,219.490875 
	C98.384949,226.717453 95.780167,231.805542 88.096985,233.591171 
	C85.846840,234.114136 83.549522,234.272369 81.363304,235.253708 
	C77.730820,236.884201 74.549217,238.583969 74.617332,243.344254 
	C74.644379,245.233719 73.088898,246.578827 71.871506,247.954010 
	C71.082108,248.845703 70.399124,249.906494 71.133141,251.105499 
	C71.959358,252.455170 73.106087,251.830429 74.203285,251.397263 
	C78.342590,249.763153 81.400337,251.734146 83.722183,254.774490 
	C87.529243,259.759674 92.323372,262.939850 98.443336,264.259125 
	C101.165634,264.845978 103.484680,266.065002 103.948074,269.622559 
z"/>
<path fill="#D8BD62" opacity="1.000000" stroke="none" 
	d="
M128.214111,282.184631 
	C128.589249,282.097107 128.845016,282.136902 128.940140,282.049133 
	C129.865158,281.206268 130.524857,280.203003 132.125809,280.102234 
	C132.654190,280.258575 132.841812,280.387909 133.100403,280.851685 
	C124.794281,287.668945 115.057503,288.565002 105.075821,287.491180 
	C101.151726,287.069031 96.658867,288.104614 93.182770,284.370911 
	C96.100983,282.818054 98.993034,284.484528 101.922363,284.983704 
	C109.570671,286.286987 116.956757,284.942993 124.765564,283.273315 
	C125.161728,283.095306 125.077080,282.975403 125.017105,283.017700 
	C125.743294,282.159241 126.929710,282.722534 128.214111,282.184631 
z"/>
<path fill="#64401C" opacity="1.000000" stroke="none" 
	d="
M53.172478,234.752106 
	C55.541740,240.042664 57.406120,245.916138 60.935867,251.398193 
	C59.533779,255.871399 63.404873,258.674835 63.840569,262.728638 
	C57.188095,254.983292 53.970718,245.520081 53.172478,234.752106 
z"/>
<path fill="#5B3910" opacity="1.000000" stroke="none" 
	d="
M124.726021,283.082092 
	C114.838943,287.749512 104.329132,286.643188 93.372688,284.100281 
	C92.741638,283.900238 92.480156,283.783478 91.970978,283.739380 
	C91.463295,283.769287 91.172447,283.795593 90.938416,283.387573 
	C91.968018,282.829956 93.024940,282.394897 93.900757,282.631165 
	C104.004311,285.356873 114.131363,284.996765 124.726021,283.082092 
z"/>
<path fill="#7D501B" opacity="1.000000" stroke="none" 
	d="
M64.653748,196.067596 
	C62.674870,202.542709 59.452370,208.716217 55.247761,214.718079 
	C56.502312,207.879715 59.941837,201.816681 64.653748,196.067596 
z"/>
<path fill="#64401C" opacity="1.000000" stroke="none" 
	d="
M66.718369,266.739746 
	C71.294388,267.590332 73.873901,271.211975 76.493912,275.265442 
	C72.773849,273.422943 69.690948,270.377350 66.718369,266.739746 
z"/>
<path fill="#7C432B" opacity="1.000000" stroke="none" 
	d="
M136.385986,184.682007 
	C132.539032,185.235214 129.823669,184.091080 128.169678,180.446136 
	C130.908890,180.297302 133.416428,181.480759 136.037109,183.278748 
	C136.451584,183.784546 136.603653,184.073090 136.385986,184.682007 
z"/>
<path fill="#6F4D20" opacity="1.000000" stroke="none" 
	d="
M163.905914,231.611954 
	C161.393494,228.874023 162.103531,225.320328 162.688965,221.429230 
	C164.235794,224.310791 164.093582,227.745010 163.905914,231.611954 
z"/>
<path fill="#7D501B" opacity="1.000000" stroke="none" 
	d="
M72.511726,188.013397 
	C71.835182,191.243240 69.572777,193.390594 66.100006,194.818756 
	C67.452332,192.217468 69.808174,190.152359 72.511726,188.013397 
z"/>
<path fill="#7E511E" opacity="1.000000" stroke="none" 
	d="
M79.581665,182.937088 
	C78.869598,185.836838 76.574760,187.228577 73.249802,187.792511 
	C74.593719,185.674591 76.941139,184.379333 79.581665,182.937088 
z"/>
<path fill="#64401C" opacity="1.000000" stroke="none" 
	d="
M82.101959,279.310425 
	C84.318077,279.452271 86.793121,279.592834 88.671410,281.947113 
	C88.166023,282.859192 87.406586,282.777618 86.317108,282.161438 
	C84.556679,281.459442 82.917267,281.328857 82.101959,279.310425 
z"/>
<path fill="#6F4D20" opacity="1.000000" stroke="none" 
	d="
M148.282364,268.848450 
	C148.452026,266.605530 149.579681,264.714539 152.268936,263.651672 
	C151.257370,265.268341 149.915878,266.983765 148.282364,268.848450 
z"/>
<path fill="#6F4D20" opacity="1.000000" stroke="none" 
	d="
M160.844559,248.519165 
	C160.348770,246.972534 160.250931,245.160461 161.975342,243.432404 
	C162.340363,244.985580 161.769882,246.617371 160.844559,248.519165 
z"/>
<path fill="#6F4D20" opacity="1.000000" stroke="none" 
	d="
M163.102905,239.657288 
	C162.236237,238.391083 162.161469,236.840317 163.468842,235.159241 
	C163.544647,236.408264 163.407532,237.868820 163.102905,239.657288 
z"/>
<path fill="#79511F" opacity="1.000000" stroke="none" 
	d="
M136.307205,185.184662 
	C136.060959,184.750732 136.105652,184.499084 136.224915,183.871719 
	C137.779114,184.451935 139.258713,185.407837 140.938019,186.628479 
	C139.478058,186.820114 137.973404,186.285965 136.307205,185.184662 
z"/>
<path fill="#6F4D20" opacity="1.000000" stroke="none" 
	d="
M161.914642,216.559097 
	C160.663834,215.908035 160.318054,214.546600 160.355698,212.665558 
	C160.904846,213.595001 161.419708,214.901978 161.914642,216.559097 
z"/>
<path fill="#6F4D20" opacity="1.000000" stroke="none" 
	d="
M140.789703,275.409241 
	C141.051056,273.946442 142.126434,272.943604 144.083511,272.494080 
	C143.305832,273.394104 142.198822,274.349548 140.789703,275.409241 
z"/>
<path fill="#6F4D20" opacity="1.000000" stroke="none" 
	d="
M155.650467,259.178345 
	C155.458328,257.757111 156.038345,256.385376 157.592484,255.177078 
	C157.210083,256.330048 156.556046,257.654785 155.650467,259.178345 
z"/>
<path fill="#64401C" opacity="1.000000" stroke="none" 
	d="
M63.991348,263.402039 
	C65.204414,263.571564 66.123604,264.397339 66.504517,266.110657 
	C65.734795,265.521423 64.906036,264.610077 63.991348,263.402039 
z"/>
<path fill="#D8BD62" opacity="1.000000" stroke="none" 
	d="
M86.292915,282.149048 
	C86.722191,281.985352 87.433571,282.074402 88.503830,282.196350 
	C89.381035,282.466614 89.899345,282.704041 90.706444,282.947327 
	C91.132263,283.074432 91.269302,283.195648 91.580246,283.529907 
	C89.878204,283.873474 88.082108,283.695648 86.292915,282.149048 
z"/>
<path fill="#79511F" opacity="1.000000" stroke="none" 
	d="
M144.046326,189.621185 
	C143.888199,189.892563 143.624954,189.860336 142.962738,189.766937 
	C142.124146,188.937851 141.684494,188.169937 141.168869,187.129181 
	C142.309128,187.367981 143.308258,188.130875 144.046326,189.621185 
z"/>
<path fill="#D8BD62" opacity="1.000000" stroke="none" 
	d="
M136.484192,278.775970 
	C135.968185,279.701996 134.874481,280.346558 133.476074,281.088593 
	C133.171371,281.186066 133.001221,280.984924 132.916138,280.884338 
	C132.832611,278.645569 134.736404,279.062897 136.484192,278.775970 
z"/>
<path fill="#7E511E" opacity="1.000000" stroke="none" 
	d="
M82.679459,181.185547 
	C82.137573,181.678406 81.297081,182.232574 80.146393,182.841278 
	C80.684425,182.346161 81.532639,181.796524 82.679459,181.185547 
z"/>
<path fill="#D8BD62" opacity="1.000000" stroke="none" 
	d="
M139.502289,276.458832 
	C139.390961,277.608704 138.680511,278.364258 137.356567,278.931152 
	C137.061890,279.057404 136.830078,278.847076 136.714294,278.741760 
	C136.598495,278.636475 136.542450,278.145752 136.679764,277.940491 
	C137.075760,277.524261 137.364365,277.368896 137.911926,277.176819 
	C138.140976,277.084534 138.068054,277.069580 138.060608,277.106049 
	C138.312744,276.717590 138.684174,276.445282 139.502289,276.458832 
z"/>
<path fill="#64401C" opacity="1.000000" stroke="none" 
	d="
M79.059250,277.330872 
	C79.792007,277.553772 80.705750,278.036804 81.810715,278.772400 
	C81.081375,278.546967 80.160805,278.069000 79.059250,277.330872 
z"/>
<path fill="#6F4D20" opacity="1.000000" stroke="none" 
	d="
M139.941528,276.417694 
	C139.446808,276.733917 139.056534,276.875824 138.359711,277.080139 
	C138.660507,276.657593 139.267838,276.172638 140.164642,275.616547 
	C140.390274,275.820282 140.254227,276.052948 139.941528,276.417694 
z"/>
<path fill="#64401C" opacity="1.000000" stroke="none" 
	d="
M76.682587,275.737610 
	C77.194740,275.879578 77.893463,276.265686 78.785858,276.886719 
	C78.276070,276.741699 77.572617,276.361725 76.682587,275.737610 
z"/>
<path fill="#6F4D20" opacity="1.000000" stroke="none" 
	d="
M146.242722,270.859589 
	C146.469208,270.388184 146.970673,269.814026 147.734741,269.115112 
	C147.504135,269.579163 147.010925,270.167999 146.242722,270.859589 
z"/>
<path fill="#6F4D20" opacity="1.000000" stroke="none" 
	d="
M154.423386,260.958618 
	C154.459702,260.608826 154.747589,260.087433 155.263718,259.359924 
	C155.219620,259.698181 154.947281,260.242615 154.423386,260.958618 
z"/>
<path fill="#6F4D20" opacity="1.000000" stroke="none" 
	d="
M144.577179,272.395844 
	C144.687683,272.082397 145.068314,271.654724 145.705582,271.097076 
	C145.590591,271.405273 145.218948,271.843445 144.577179,272.395844 
z"/>
<path fill="#6F4D20" opacity="1.000000" stroke="none" 
	d="
M158.513824,253.627014 
	C158.443069,253.440659 158.653305,253.038788 159.074280,252.371704 
	C159.121613,252.541489 158.958206,252.976517 158.513824,253.627014 
z"/>
<path fill="#6F4D20" opacity="1.000000" stroke="none" 
	d="
M159.324463,209.603088 
	C159.103455,209.729614 158.955887,209.530548 158.943939,209.118378 
	C158.967636,208.989014 159.285965,209.361237 159.324463,209.603088 
z"/>
<path fill="#6F4D20" opacity="1.000000" stroke="none" 
	d="
M152.662842,263.435822 
	C152.618225,263.270111 152.827545,262.955292 153.246460,262.458588 
	C153.276291,262.613403 153.096542,262.950043 152.662842,263.435822 
z"/>
<path fill="#A96847" opacity="1.000000" stroke="none" 
	d="
M94.025261,214.523773 
	C91.277786,217.052780 88.648125,219.335403 85.433472,220.865234 
	C80.138779,223.384949 74.991989,223.306808 70.414467,219.574066 
	C65.870117,215.868378 66.097145,210.580200 67.603638,205.737213 
	C69.771629,198.767731 74.801064,194.084702 81.956795,192.430344 
	C90.859802,190.372025 97.924072,196.923203 96.896538,206.009094 
	C96.656898,208.128082 95.802757,210.177582 95.131348,212.629852 
	C94.729866,213.428391 94.428375,213.856094 94.025261,214.523773 
z"/>
<path fill="#5B3910" opacity="1.000000" stroke="none" 
	d="
M136.593353,277.795349 
	C136.898819,277.983582 136.726074,278.299652 136.662277,278.468048 
	C135.483887,279.198059 134.369278,279.759674 133.042877,280.552521 
	C131.785873,281.151947 130.740677,281.520142 129.365372,281.924866 
	C130.064911,279.192383 132.473358,278.563110 135.348969,278.066528 
	C135.894409,277.879272 136.091156,277.743225 136.593353,277.795349 
z"/>
<path fill="#5B3910" opacity="1.000000" stroke="none" 
	d="
M128.213501,282.154358 
	C127.636078,282.437531 126.682907,282.777954 125.343437,283.089172 
	C125.917343,282.777191 126.877548,282.494385 128.213501,282.154358 
z"/>
<path fill="#6F4D20" opacity="1.000000" stroke="none" 
	d="
M137.156891,277.914978 
	C136.699661,277.998230 136.500504,278.012878 135.999512,278.021423 
	C136.302567,277.762207 136.907471,277.509094 137.826660,277.170258 
	C137.898956,277.338470 137.656967,277.592407 137.156891,277.914978 
z"/>
</svg>