<?xml version="1.0" encoding="utf-8" ?><svg xmlns="http://www.w3.org/2000/svg" xmlns:xlink="http://www.w3.org/1999/xlink" width="1024" height="1024" viewBox="0 0 1024 1024"><path fill="#FEFEFE" d="M0 0L1024 0L1024 1024L0 1024L0 0Z"/><path fill="#E0E6D7" d="M474.7 3.25287C476.853 3.2273 479.007 3.21319 481.16 3.21055L743.557 3.47222L819.362 3.55197C845.706 3.58773 881.59 3.26089 907.298 9.18841C933.141 15.0967 956.803 28.1518 975.581 46.8636C996.342 67.1967 1010.41 93.377 1015.9 121.912C1021.46 150.997 1020.44 187.682 1020.63 217.432L1020.99 348.848L1020.48 848.152C1020.5 857.941 1019.48 867.667 1018.9 877.416C1016.66 915.265 1003.49 948.346 976.332 975.526C957.711 994.463 934.116 1007.75 908.269 1013.86C884.516 1019.57 852.538 1019.56 827.968 1019.76L758.817 1020.06L550.019 1020.41L285.143 1020.1L200.761 1019.85C174.094 1019.62 144.589 1019.95 118.462 1014.02C92.4035 1008.17 68.5522 995.016 49.7031 976.095C7.37829 934.149 5.00257 888.047 4.96103 832.235L4.60807 778.75L4.48827 339.054L4.882 217.372C5.05593 186.389 3.81129 151.423 9.71234 121.131C15.0865 93.5366 28.5533 68.1665 48.3972 48.2527C67.2008 28.9711 91.1336 15.4787 117.364 9.37141C142.806 3.29735 174.814 3.55021 200.878 3.52136L264.928 3.46877L474.7 3.25287Z"/><path fill="#384F35" d="M501.764 126.866C510.618 126.465 517.848 126.447 526.699 127.035C539.557 128.474 563.552 137.153 575.012 142.989C596.57 153.968 616.894 172.946 629.139 193.838C649.723 228.958 648.672 272.139 663.799 308.977C671.623 328.031 684.438 347.289 695.561 364.699C712.358 390.99 722.095 408.794 731.672 438.222C753.029 425.459 770.26 399.122 776.404 375.376C772.264 364.731 762.435 358.507 760.676 347.451C759.679 341.186 765.762 334.622 772.22 334.778C779.027 334.943 782.73 338.738 787.261 343.302C790.406 336.866 792.306 330.109 794.967 323.48C798.869 313.76 807.711 309.505 816.633 316.115C822.156 320.208 821.517 327.025 820.988 333.055C824.829 329.172 828.578 325.405 834.425 325.235C841.924 325.018 848.339 330.691 848.437 338.309C848.514 344.312 845.417 347.71 841.633 351.8C842.047 351.925 842.459 352.058 842.869 352.197C846.017 353.276 849.424 355.439 850.729 358.593C856.488 372.504 839.622 378.927 830.179 382.988C825.276 390.849 820.173 393.48 811.887 396.274C797.677 432.548 774.064 455.977 738.769 471.739C743.054 504.017 740.998 536.821 732.718 568.311C719.372 617.151 690.213 660.19 649.803 690.694C640.627 697.593 632.927 702.191 623.015 707.901C625.693 722.307 626.975 743.561 624.347 758.14C637.288 761.937 649.659 769.316 651.372 783.76C651.695 786.485 651.526 790.009 649.531 792.165C645.774 795.946 638.617 797.69 633.027 798.057C614.105 799.3 587.944 801.089 571.464 790.586C565.918 787.052 566.217 775.042 566.43 769.095C566.905 755.778 566.392 743.345 564.799 730.101C536.675 736.982 502.463 737.084 473.973 732.381C472.853 740.188 473.143 748.43 472.589 756.182C471.608 769.9 477.38 788.753 460.324 794.291C447.727 798.63 433.836 798.902 420.579 798.912C414.137 798.916 389.167 797.966 387.537 789.32C384.38 772.565 400.756 762.349 414.659 758.053C412.329 743.803 413.246 727.367 415.392 713.154C322.892 666.34 276.601 573.406 289.711 471.35C255.55 455.758 231.566 431.957 217.86 396.558C208.717 393.604 204.319 390.578 199.117 382.552C191.96 379.432 179.743 374.825 177.699 366.822C175.611 358.648 180.917 353.888 187.976 352.014C184.489 348.309 181.335 344.674 181.168 339.279C181.073 335.705 182.39 332.237 184.833 329.626C187.394 326.936 191.363 325.317 195.057 325.424C201.392 325.609 204.505 329.135 208.56 333.237C208.172 325.699 207.562 318.692 215.531 314.685C223.108 310.876 229.853 313.945 233.616 321.222C237.081 327.923 238.823 335.717 242.106 342.655L242.442 343.356C246.471 339.177 252.795 333.345 259.002 334.945C268.613 337.423 271.645 344.722 267.365 353.444C263.552 361.213 256.383 366.762 253.739 374.681L253.541 375.293C253.61 375.663 253.686 376.03 253.767 376.397C258.894 399.383 277.014 424.636 297.03 437.389C305.643 410.879 315.034 393.021 329.95 369.284C341.926 350.226 354.451 331.326 363.339 310.608C381.714 267.777 377.306 222.049 406.503 182.82C429.208 152.314 464.293 132.342 501.764 126.866Z"/><path fill="#819F60" d="M504.806 153.202C505.906 153.013 507.029 153.009 508.151 152.959C537.137 151.472 565.511 161.655 586.937 181.232C595.321 188.917 602.365 197.946 607.781 207.946C623.845 236.955 623.201 264.255 630.703 295.327C638.398 327.194 658.139 356.651 676.721 383.015C700.266 416.42 713.262 455.321 714.971 496.16C717.609 550.798 698.482 604.255 661.782 644.818C626.134 683.552 576.635 708.302 523.778 710.566C516.374 711.348 506.255 710.942 498.837 710.388C459.01 707.252 421.034 692.262 389.802 667.35C347.553 633.93 320.31 585.096 314.066 531.59C307.793 478.593 321.515 425.907 351.673 382.419C367.58 359.481 381.357 339.883 391.586 313.663C407.725 272.295 400.758 228.667 430.542 192.657C450.481 168.548 474.17 156.577 504.806 153.202Z"/><path fill="#E1D06E" d="M506.4 181.204C527.255 178.535 551.177 187.007 566.792 200.731C592.635 223.445 596.065 254.541 601.076 286.314C603.433 301.264 608.254 317.117 614.015 331.117C624.548 357.162 640.631 377.378 655.74 400.547C674.528 428.82 685.552 461.536 687.708 495.414C691.026 542.849 675.233 589.64 643.85 625.363C612.944 660.098 569.534 681.172 523.125 683.971C371.719 689.018 291.174 524.934 371.429 402.267C388.27 376.525 405.458 354.187 416.551 325.078C421.186 312.779 424.732 300.097 427.148 287.177C432.456 259.408 432.805 233.939 451.652 210.528C465.443 193.397 484.627 183.514 506.4 181.204Z"/><path fill="#784934" d="M390.692 528.994C381.784 478.914 404.134 428.434 447.199 401.365C490.263 374.296 545.441 376.043 586.707 405.784C632.382 438.703 650.39 498.109 630.68 550.848C610.97 603.587 558.414 636.622 502.345 631.516C446.275 626.41 400.551 584.425 390.692 528.994Z"/><path fill="#54352A" d="M586.707 405.784C632.382 438.703 650.39 498.109 630.68 550.848C610.97 603.587 558.414 636.622 502.345 631.516C446.275 626.41 400.551 584.425 390.692 528.994C391.23 528.403 390.876 528.615 391.834 528.512C392.938 529.647 396.128 536.733 397.337 538.901C399.539 542.845 401.972 546.655 404.623 550.312C442.24 601.645 510.957 611.694 562.165 574.337C607.346 541.378 623.156 480.169 599.982 429.383C596.346 421.415 590.555 415.072 586.467 407.461C586.547 406.902 586.627 406.343 586.707 405.784Z"/><path fill="#A26B4D" d="M457.869 420.176C502.062 416.592 496.067 480.052 451.864 488.466C443.993 488.854 436.459 488.335 429.939 483.197C419.376 474.907 418.459 460.017 423.297 448.336C429.415 433.566 441.752 422.248 457.869 420.176Z"/><path fill="#384F35" d="M487.925 330.111C496.66 330.369 504.093 334.74 513.221 334.668C517.17 334.653 521.108 334.245 524.976 333.452C535.814 331.135 553.962 324.403 551.838 345.018C550.998 353.168 545.026 360.751 538.532 365.62C534.14 368.607 529.226 370.739 524.045 371.906C513.424 374.242 502.006 372.456 492.289 366.473C482.94 360.717 472.897 346.116 479.506 334.959C481.234 332.044 484.628 330.783 487.925 330.111Z"/><path fill="#E59796" d="M510.93 351.626C521.466 350.285 529.587 352.779 537.854 359.312C531.96 363.636 527.353 365.385 520.377 367.158C508.971 368.512 502.241 366.17 492.709 360.259C499.68 355.198 502.605 353.395 510.93 351.626Z"/><path fill="#384F35" d="M564.51 284.678C574.92 282.447 585.175 289.052 587.45 299.453C589.725 309.853 583.164 320.136 572.773 322.455C562.319 324.789 551.96 318.179 549.672 307.716C547.383 297.252 554.037 286.922 564.51 284.678Z"/><path fill="#FEFEFE" d="M560.549 291.8C563.579 290.787 566.856 292.425 567.865 295.456C568.874 298.488 567.232 301.763 564.199 302.768C561.172 303.771 557.904 302.132 556.897 299.107C555.89 296.081 557.524 292.811 560.549 291.8Z"/><path fill="#384F35" d="M456.711 284.693C467.068 282.717 477.082 289.458 479.15 299.797C481.218 310.136 474.567 320.21 464.246 322.37C453.795 324.557 443.566 317.803 441.472 307.333C439.378 296.863 446.223 286.694 456.711 284.693Z"/><path fill="#FEFEFE" d="M452.888 291.655C455.997 291.179 458.911 293.293 459.423 296.397C459.935 299.5 457.856 302.438 454.759 302.987C452.723 303.348 450.65 302.586 449.331 300.993C448.013 299.4 447.653 297.22 448.389 295.288C449.126 293.355 450.844 291.968 452.888 291.655Z"/><path fill="#819F60" d="M805.951 319.977C823.685 318.923 807.034 342.019 812.017 347.797C820.724 350.999 832.47 319.195 841.614 337.701C843.96 342.45 826.719 355.424 823.761 359.253C823.31 360.836 823.374 360.733 823.866 362.325C829.087 366.72 840.603 355.425 845.099 361.419C846.426 371.832 828.339 373.655 825.047 378.466C819.545 386.509 815.522 387.591 806.567 390.601C804.173 395.092 802.015 402.104 798.96 407.92C787.087 431.011 768.129 449.69 744.864 461.22C742.586 462.427 740.124 463.441 737.756 464.477C736.344 457.396 735.403 452.497 733.327 445.585C758.351 430.332 776.272 403.892 783.671 375.79C780.61 364.594 772.979 359.131 768.678 349.553C764.318 339.844 776.073 339.852 780.597 346.355C781.265 347.315 786.506 352.977 786.892 353.158C795.267 357.076 800.596 358.87 800.701 369.614C800.772 372.756 800.405 378.779 805.356 378.066C808.569 375.908 808.537 372.206 808.193 368.778C807.115 358.042 802.55 352.082 792.837 348.078C797.539 339.168 799.904 325.186 805.951 319.977Z"/><path fill="#819F60" d="M219.916 319.987C224.178 320.072 226.239 321.818 227.899 325.627C231.09 332.947 233.342 340.768 236.584 348.116C227.8 352.621 221.164 358.868 221.408 369.344C221.482 372.562 221.769 375.982 224.153 378.33C230.605 379.831 227.948 368.566 228.676 365.757C230.097 360.281 238.021 355.541 242.571 352.289C247.247 348.947 256.288 336.441 261.638 344.485C263.614 347.507 259.404 353.329 257.458 355.835C252.324 362.446 248.711 367.409 246.008 375.395C254.138 404.347 269.482 428.281 295.143 444.482C293.288 451.161 292.109 457.191 290.791 463.997L285.706 461.709C253.929 446.202 236.258 422.819 223.187 390.932C212.04 387.205 210.04 385.86 203.062 376.491C198.011 374.482 178.945 367.88 185.441 360.479C190.342 354.896 201.328 368.468 206.18 361.863C206.557 354.786 183.391 344.918 188.81 336.041C198.005 320.98 209.147 350.93 217.437 347.87C223.665 341.297 207.332 327.243 219.916 319.987Z"/><path fill="#819F60" d="M616.307 711.53C620.596 722.863 618.374 750.375 616.947 762.986C623.913 765.119 630.817 766.878 636.643 771.428C639.802 772.72 647.925 785.217 643.451 788.122C635.738 793.128 609.902 792.348 601.622 791.68C592.995 791.18 573.48 789.922 573.415 778.243C573.322 761.556 573.834 745.208 571.506 728.582C587.025 724.575 602.051 718.856 616.307 711.53Z"/><path fill="#819F60" d="M421.741 716.146C435.268 723.092 452.442 727.807 467.168 731.266C466.628 737.732 466.088 744.981 465.798 751.416C464.516 779.857 472.982 789.072 438.623 791.472C425.553 792.301 410.399 792.883 397.756 789.339C394.821 788.192 393.397 786.392 394.275 783.283C398.061 769.89 410.609 766.772 421.918 763.088C421.78 758.161 420.673 751.626 420.386 746.366C419.788 735.391 420.338 726.854 421.741 716.146Z"/><path fill="#384F35" d="M623.796 862.615C628.211 862.905 630.83 863.524 630.954 868.52C631.121 875.243 631.041 881.95 631.033 888.674L631.077 929.271L634.076 932.227C633.984 935.927 634.09 940.229 629.739 941.295C624.131 942.668 620.351 937.956 619.043 933.4C612.244 941.785 604.141 942.915 594.171 940.236C576.625 932.887 574.849 905.991 586.379 892.662C594.228 883.587 608.985 883.32 617.919 891.726C617.931 885.061 617.124 871.316 618.527 864.934C618.807 863.661 622.465 862.91 623.796 862.615Z"/><path fill="#E0E6D7" d="M602.493 897.137C609.002 896.508 612.739 896.706 617.569 901.499C617.688 909.061 617.81 917.728 617.446 925.197C614.002 928.499 613.101 929.175 608.357 930.53C602.387 930.656 596.624 929.217 594.433 923.221C590.798 913.274 591.919 901.525 602.493 897.137Z"/><path fill="#384F35" d="M668.296 885.681C682.601 884.809 694.718 892.835 696.613 907.386C698.961 925.425 692.088 938.595 673.104 941.453C657.343 942.067 645.331 934.726 643.541 918.108C641.642 900.482 649.937 887.541 668.296 885.681Z"/><path fill="#E0E6D7" d="M669.011 896.625C684.093 895.993 686.383 913.678 681.105 924.485C679.294 928.192 676.335 929.445 672.513 930.53C655.835 930.737 653.689 913.714 660.139 901.477C661.803 898.321 665.633 897.176 669.011 896.625Z"/><path fill="#384F35" d="M427.253 886.109C434.316 885.598 439.822 885.611 446.388 889.222C463.336 898.541 463.324 928.973 446.294 938.173C443.655 939.599 441.335 940.248 438.447 940.996C409.745 945.179 397.351 919.535 410.281 895.935C413.371 890.293 421.016 887.23 427.253 886.109Z"/><path fill="#E0E6D7" d="M429.807 896.577C436.699 896.149 442.624 898.768 444.449 905.731C446.991 915.429 446.016 927.13 435.156 930.529C432.137 930.634 429.635 930.851 426.679 929.516C417.595 925.414 417.029 910.85 420.976 903.026C422.92 899.172 425.733 897.731 429.807 896.577Z"/><path fill="#384F35" d="M544.287 885.715C546.823 885.768 549.547 885.854 552.039 886.372C576.739 891.512 561.853 920.945 568.632 930.776C569.072 931.413 569.533 932.032 569.916 932.706C570.803 934.263 570.994 935.671 570.471 937.409C569.991 939.003 569.085 940.761 567.467 941.436C565.795 942.133 563.82 941.469 562.272 940.758C558.365 938.964 556.875 937.365 555.438 933.358C547.052 942.203 536.122 944.31 525.687 937.442C522.418 933.959 520.783 930.607 520.801 925.786C520.87 907.483 540.995 907.547 553.972 907.391C553.777 885.92 529.973 903.468 526.094 898.708C517.721 888.434 537.549 886.138 544.287 885.715Z"/><path fill="#E0E6D7" d="M545.344 916.188C547.18 915.953 551.947 915.932 553.999 915.872L553.99 925.094C550.547 929.414 548.422 930.045 543.327 931.266C536.921 931.136 530.267 928.48 535.181 920.438C537.277 917.008 541.591 916.558 545.344 916.188Z"/><path fill="#384F35" d="M394.568 865.589C397.582 865.668 399.591 865.627 401.69 867.779C402.45 869.532 402.546 870.772 402.015 872.676C399.965 880.021 396.938 887.795 394.375 894.986C389.862 907.651 385.402 920.313 380.844 932.95C379.487 936.065 379.126 939.22 375.69 940.606C371.997 942.096 364.524 941.899 362.691 937.679C360.282 932.131 358.374 925.938 356.4 920.145L344.67 885.666C343.427 881.404 338.787 871.627 340.871 868.136C342.959 864.638 352.216 865.022 353.907 870.362C359.69 888.615 365.897 906.967 371.009 925.386L382.917 887.891C384.881 881.779 386.875 874.724 389.557 868.897C390.596 866.638 392.364 866.206 394.568 865.589Z"/><path fill="#384F35" d="M491.32 885.634C496.902 885.173 513.679 885.767 513.429 894.865C513.387 896.364 510.041 899.331 508.696 900.002C506.16 901.264 503.186 897.972 500.752 897.261C483.576 892.247 477.243 910.827 483.722 923.866C488.511 933.504 499.794 931.093 507.076 926.128C508.311 925.286 508.922 925.829 510.076 926.319C518.447 933.934 511.209 938.799 503.033 940.697C487.49 944.305 470.945 937.522 468.363 920.198C465.78 902.875 472.503 888.562 491.32 885.634Z"/><path fill="#54352A" d="M501.764 126.866C501.348 115.146 496.783 96.5187 506.093 87.8306C530.429 65.1197 526.643 115.694 526.699 127.035C517.848 126.447 510.618 126.465 501.764 126.866Z"/></svg>