<?xml version="1.0" encoding="utf-8" ?><svg xmlns="http://www.w3.org/2000/svg" xmlns:xlink="http://www.w3.org/1999/xlink" width="1963" height="1121" viewBox="0 0 1963 1121"><path fill="#FEFEFE" transform="matrix(1.46057 0 0 1.45964 0 6.10352e-05)" d="M0 0L1344 0L1344 768L0 768L0 0Z"/><path fill="#DFE4D8" transform="matrix(1.46057 0 0 1.45964 0 6.10352e-05)" d="M121.349 3.55844C128.606 2.79832 137.924 3.24094 145.298 3.25885L183.886 3.27258L310.317 3.27318L706.46 3.29576L1058.15 3.28017L1165.8 3.25127C1213.52 3.22284 1256.69 -1.17965 1296.49 31.239C1321.53 51.7774 1337.38 81.4203 1340.58 113.65C1341.83 125.989 1341.44 140.788 1341.44 153.434L1341.4 213.697L1341.33 407.119L1341.35 569.646L1341.38 617.643C1341.38 631.276 1341.69 645.524 1339.8 659.003C1336.8 680.879 1327.81 701.498 1313.82 718.576C1290.29 747.288 1260.24 760.446 1224.07 764.035C1194.74 765.199 1162.87 764.64 1133.33 764.66L982.276 764.696L527.444 764.676L250.407 764.654L166.313 764.68C120.222 764.696 84.6433 767.018 46.6413 735.096C21.8137 714.207 6.32964 684.285 3.61407 651.948C2.35566 637.179 2.68649 620.789 2.68191 605.823L2.69902 540.521L2.72485 334.557L2.68392 187.179L2.68616 145.019C2.69302 133.087 2.4735 119.761 4.18896 108.026C7.49035 85.5616 17 64.4659 31.646 47.1175C55.1976 19.3768 85.6515 6.41172 121.349 3.55844Z"/><path fill="#374E34" transform="matrix(1.46057 0 0 1.45964 0 6.10352e-05)" d="M665.552 172.223C670.01 171.995 672.677 171.786 677.146 172.298C693.989 177.378 704.758 180.302 717.245 193.904C734.556 211.331 731.137 239.882 741.535 259.6C752.401 280.205 762.816 293.14 770.959 315.734C782.481 307.093 787.321 300.064 791.534 286.518C788.085 281.639 781.84 275.072 785.291 269.139C789.79 266.38 793.177 268.619 796.666 271.537C798.592 266.232 799.924 261.173 804.444 257.652C811.138 256.059 810.329 264.139 813.63 265.443C822.572 260.033 826.947 265.087 822.914 274.695C829.995 283.109 824.159 285.885 817.08 290.686C813.523 293.097 812.288 294.612 808.036 296.229C800.025 314.975 792.318 322.244 774.172 331.273C776.084 343.921 775.284 360.834 772.087 373.162C763.928 404.615 748.126 423.894 721.026 440.402C722.526 447.886 722.816 455.562 721.886 463.137C723.413 463.757 725.197 464.492 726.56 465.347C757.481 484.756 697.582 488.114 695.318 474.579C694.451 469.395 694.892 457.262 694.14 450.472C678.101 453.643 668.537 453.539 652.438 451.346C652.196 457.791 652.238 468.729 651.274 474.714C649.802 483.851 623.561 483.58 617.514 481.215C602.495 475.342 617.287 466.07 624.873 462.973C623.749 454.681 624.148 450.803 625.18 442.435C580.235 418.484 563.596 380.949 567.875 331.099C550.301 322.178 542.828 314.853 534.566 296.711C530.777 294.966 519.125 287.051 516.588 283.306C512.904 280 519.806 275.728 519.431 275.079C517.299 271.393 515.458 266.308 520.518 263.761C523.334 263.572 526.328 264.985 529.024 266.007L529.856 265.536C530.65 258.851 535.657 254.576 541.023 260.901C542.608 262.77 544.698 269.111 545.694 271.717C546.505 271.027 550.161 267.96 551.036 267.949C565.882 267.753 553.138 282.562 550.743 286.363C554.988 299.932 559.894 307.085 571.391 315.476C578.996 290.996 591.572 278.686 601.399 256.395C608.851 238.405 608.322 218.388 619.018 201.553C630.159 184.017 646.07 176.788 665.552 172.223Z"/><path fill="#85A060" transform="matrix(1.46057 0 0 1.45964 0 6.10352e-05)" d="M665.012 184.632C665.31 184.596 665.607 184.561 665.905 184.526C679.504 183.428 692.984 187.762 703.396 196.579C724.673 214.941 718.976 238.733 728.962 262.091C732.549 269.832 737.243 278.436 742.491 285.211C770.135 320.896 771.001 374.238 740.424 409.575C724.332 428.305 701.39 439.782 676.755 441.424C657.217 443.61 633.708 435.839 617.709 424.606C597.789 410.539 584.261 389.144 580.09 365.114C575.705 340.327 580.706 314.795 594.119 293.496C602.12 280.876 608.66 273.217 614.144 258.837C621.259 240.181 618.824 221.362 630.957 204.907C639.591 193.197 650.976 186.955 665.012 184.632Z"/><path fill="#E2D171" transform="matrix(1.46057 0 0 1.45964 0 6.10352e-05)" d="M665.024 197.697C676.388 196.923 685.573 198.393 694.703 206.064C713.219 221.623 707.783 246.586 717.015 266.622C730.321 295.501 747.726 305.278 750.588 339.892C752.579 362.117 745.676 384.225 731.391 401.365C717.078 418.207 697.905 427.113 676.098 428.905C660.793 430.737 641.992 425.414 628.957 417.481C589.036 393.183 580.072 338.781 604.708 300.358C612.761 287.8 621.661 276.096 626.801 261.95C632.809 246.544 631.073 229.199 639.629 214.894C645.752 204.657 653.852 200.373 665.024 197.697Z"/><defs><linearGradient id="gradient_0" gradientUnits="userSpaceOnUse" x1="702.88293" y1="393.35635" x2="638.22522" y2="301.50784"><stop offset="0" stop-color="#5F3C2D"/><stop offset="1" stop-color="#865239"/></linearGradient></defs><path fill="url(#gradient_0)" transform="matrix(1.46057 0 0 1.45964 0 6.10352e-05)" d="M665.91 290.562C697.682 287.806 725.614 311.471 728.123 343.271C730.633 375.071 706.759 402.826 674.948 405.091C643.483 407.331 616.102 383.766 613.619 352.312C611.137 320.858 634.483 293.288 665.91 290.562Z"/><path fill="#A26B4D" transform="matrix(1.46057 0 0 1.45964 0 6.10352e-05)" d="M645.157 308.011C665.845 306.859 663.54 332.696 643.215 339.664C619.758 340.22 626.194 311.838 645.157 308.011Z"/><path fill="#374E34" transform="matrix(1.46057 0 0 1.45964 0 6.10352e-05)" d="M659.964 281.749C656.169 278.223 652.035 273.054 655.47 267.703C660.02 263.878 666.593 268.451 670.374 267.792C681.061 265.93 698.15 264.896 683.776 281.28C680.734 283.671 677.084 285.164 673.239 285.591C668.1 286.196 663.974 284.934 659.964 281.749Z"/><path fill="#EA9893" transform="matrix(1.46057 0 0 1.45964 0 6.10352e-05)" d="M661.343 280.05C667.806 274.167 674.815 274.361 681.773 279.375L683.776 281.28C680.734 283.671 677.084 285.164 673.239 285.591C668.1 286.196 663.974 284.934 659.964 281.749L661.343 280.05Z"/><path fill="#525A3F" transform="matrix(1.46057 0 0 1.45964 0 6.10352e-05)" d="M681.773 279.375L683.776 281.28C680.734 283.671 677.084 285.164 673.239 285.591C668.1 286.196 663.974 284.934 659.964 281.749L661.343 280.05C669.323 284.041 674.14 284.182 681.773 279.375Z"/><path fill="#374E34" transform="matrix(1.46057 0 0 1.45964 0 6.10352e-05)" d="M642.861 245.878C645.866 244.626 649.314 245.101 651.869 247.119C654.424 249.137 655.686 252.381 655.165 255.595C654.645 258.81 652.425 261.49 649.364 262.599C644.783 264.257 639.716 261.956 637.949 257.415C636.183 252.873 638.364 247.752 642.861 245.878Z"/><path fill="#374E34" transform="matrix(1.46057 0 0 1.45964 0 6.10352e-05)" d="M694.044 245.158C697.158 244.422 700.426 245.418 702.601 247.764C704.776 250.111 705.521 253.446 704.552 256.496C703.582 259.545 701.048 261.837 697.918 262.497C693.16 263.499 688.481 260.487 687.42 255.741C686.36 250.995 689.312 246.278 694.044 245.158Z"/><path fill="#85A060" transform="matrix(1.46057 0 0 1.45964 0 6.10352e-05)" d="M804.646 260.752L807.471 261.428C811.909 265.709 804.113 271.345 808.701 273.959C813.154 272.363 815.198 265.932 820.353 266.543L821.541 268.195C821.811 273.423 815.312 275.251 813.844 279.853C815.44 282.079 819.704 278.062 823.505 279.442L823.761 280.576C821.557 286.282 806.867 291.681 805.986 293.65C798.875 309.526 794.04 315.89 778.678 325.673C776.859 326.715 776.483 327.147 774.503 327.022C772.651 324.917 772.55 321.871 771.858 318.729C785.77 309.458 789.663 301.612 795.109 286.438C793.198 282.724 787.725 276.281 788.619 272.344C792.08 271.76 798.337 277.361 802.297 279.869C802.678 282.717 802.595 284.684 804.311 286.72L805.426 286.5C808.091 281.333 803.805 276.363 799.61 273.763C801.276 268.859 802.521 265.467 804.646 260.752Z"/><path fill="#85A060" transform="matrix(1.46057 0 0 1.45964 0 6.10352e-05)" d="M534.816 260.761C539.948 261.358 541.251 269.417 542.605 273.747C538.887 276.891 534.513 280.306 536.236 286.155C536.62 287.461 536.843 287.437 537.992 287.906C539.944 286.089 539.483 284.986 539.735 281.721C542.179 278.471 548.363 273.538 551.768 271.275C553.797 271.122 553.132 270.884 554.639 271.857C555.428 274.957 549.603 282.156 547.277 286.205C553.062 302.736 556.059 308.13 570.329 318.789C569.909 321.294 569.482 325.335 568.252 327.343L566.767 327.391C551.225 318.859 543.694 309.693 536.798 293.585C533.538 292.526 518.176 283.207 519.171 279.686C522.098 278.696 524.151 280.687 528.216 280.388C528.615 278.032 522.532 274.475 520.868 269.977C521.181 267.742 520.749 268.525 522.502 267.057C527.919 266.72 528.462 272.277 533.204 274.324C537.853 272.729 530.795 267.835 534.816 260.761Z"/><path fill="#85A060" transform="matrix(1.46057 0 0 1.45964 0 6.10352e-05)" d="M717.058 442.328L717.578 442.213L718.435 442.772C719.912 448.217 718.902 459.508 718.548 465.604C722.679 466.747 730.139 469.65 731.731 474.052C730.293 480.613 718.561 479.229 713.408 479.149C697.701 477.746 697.225 475.551 698.014 459.821C698.134 457.433 697.576 452.343 697.364 449.712C704.59 447.885 710.375 445.492 717.058 442.328Z"/><path fill="#85A060" transform="matrix(1.46057 0 0 1.45964 0 6.10352e-05)" d="M627.831 443.736C635.877 447.207 640.92 449.018 649.476 450.787C647.981 466.532 654.291 477.412 635.409 478.851C630.132 479.57 619.008 480.518 615.681 475.535C615.102 469.199 623.34 466.787 628.27 465.379C627.291 457.489 627.299 451.638 627.831 443.736Z"/><path fill="#374E34" transform="matrix(1.46057 0 0 1.45964 0 6.10352e-05)" d="M781.406 513.412C785.594 513.128 791.129 513.03 791.44 518.569C791.837 525.638 791.629 532.802 791.613 539.895C791.482 555.122 791.526 570.35 791.744 585.576C802.041 597.149 784.6 606.969 778.966 590.372C769.861 599.026 763.482 601.008 751.236 598.292C749.435 597.47 747.723 596.466 746.127 595.296C720.075 576.005 743.174 518.038 777.392 545.603C777.185 537.303 776.41 525.239 777.674 516.947C777.974 514.984 779.736 514.378 781.406 513.412Z"/><path fill="#DFE4D8" transform="matrix(1.46057 0 0 1.45964 0 6.10352e-05)" d="M761.963 550.821C768.713 550.631 771.866 551.525 776.961 555.944L776.978 581.566C772.537 585.198 770.744 586.21 765.178 587.535C745.41 586.609 744.025 557.576 761.963 550.821Z"/><path fill="#374E34" transform="matrix(1.46057 0 0 1.45964 0 6.10352e-05)" d="M567.845 539.271C584.289 536.088 600.217 546.782 603.5 563.21C606.783 579.638 596.189 595.635 579.785 599.02C563.239 602.433 547.077 591.724 543.765 575.153C540.454 558.582 551.259 542.482 567.845 539.271Z"/><path fill="#DFE4D8" transform="matrix(1.46057 0 0 1.45964 0 6.10352e-05)" d="M570.29 550.815C593.508 549.401 593.867 581.748 576.889 587.514C574.528 587.599 570.261 587.686 568.251 586.602C554.278 579.066 555.176 556.655 570.29 550.815Z"/><path fill="#374E34" transform="matrix(1.46057 0 0 1.45964 0 6.10352e-05)" d="M829.25 539.272C845.745 536.086 861.701 546.872 864.897 563.369C868.092 579.866 857.318 595.832 840.827 599.038C824.322 602.247 808.343 591.459 805.145 574.948C801.947 558.437 812.742 542.461 829.25 539.272Z"/><path fill="#DFE4D8" transform="matrix(1.46057 0 0 1.45964 0 6.10352e-05)" d="M831.684 550.811C833.861 550.698 837.853 550.475 839.78 551.428C854.11 558.516 853.346 580.933 838.712 587.354C815.583 588.937 814.283 557.756 831.684 550.811Z"/><path fill="#374E34" transform="matrix(1.46057 0 0 1.45964 0 6.10352e-05)" d="M533.126 516.677C543.107 517.002 541.063 523.306 538.542 530.304C531.2 550.689 523.996 571.137 516.483 591.457C515.428 594.311 514.025 597.634 510.894 598.611C506.306 600.319 499.15 599.654 496.798 594.718C494.04 588.686 492.01 582.02 489.832 575.707L476.755 537.763C475.019 533.151 473.517 529.292 472.32 524.536C469.772 514.409 485.02 515.894 486.948 521.318C493.997 541.141 499.607 561.61 506.499 581.524C512.176 561.383 519.697 540.242 526.552 520.439C527.419 517.934 530.825 517.264 533.126 516.677Z"/><path fill="#374E34" transform="matrix(1.46057 0 0 1.45964 0 6.10352e-05)" d="M692.726 539.133C726.716 534.711 721.479 562.481 721.835 585.438C733.307 599.01 715.262 605.552 709.38 590.692C700.698 599.09 692.047 601.303 680.581 597.631C671.944 592.677 670.204 587.15 671.783 577.292C674.587 559.793 701.161 565.812 706.813 562.189C707.617 560.524 707.058 558.082 706.544 556.176C702.898 542.661 678 560.295 675.075 549.995C672.888 542.296 686.826 539.999 692.726 539.133Z"/><path fill="#DFE4D8" transform="matrix(1.46057 0 0 1.45964 0 6.10352e-05)" d="M698.958 571.944L707.458 571.675L707.411 582.717C702.869 586.688 700.371 587.797 694.548 588.492C679.883 587.461 682.415 573.89 698.958 571.944Z"/><path fill="#374E34" transform="matrix(1.46057 0 0 1.45964 0 6.10352e-05)" d="M637.253 539.031C641.47 538.725 666.273 538.111 662.024 550.362C659.37 558.015 645.334 548.116 636.424 552.278C624 558.08 625.63 582.779 638.434 586.809C645.243 588.89 651.729 585.286 657.988 582.094C668.011 590.218 661.648 596.069 651.658 598.556C635.541 602.774 617.545 595.678 614.169 578.025C610.512 558.897 617.461 543.18 637.253 539.031Z"/><path fill="#543529" transform="matrix(1.46057 0 0 1.45964 0 6.10352e-05)" d="M665.552 172.223C664.913 166.183 663.306 153.218 671.865 151.929C678.342 154.474 677.335 166.514 677.146 172.298C672.677 171.786 670.01 171.995 665.552 172.223Z"/></svg>