<?xml version="1.0" encoding="utf-8" ?><svg xmlns="http://www.w3.org/2000/svg" xmlns:xlink="http://www.w3.org/1999/xlink" width="2166" height="1230" viewBox="0 0 2166 1230"><clipPath id="cl_4"><rect y="-3.0517578e-05" width="2166" height="1230"/></clipPath><g clip-path="url(#cl_4)"><path fill="#E0E4D8" transform="matrix(1.20067 0 0 1.20117 0 -3.05176e-05)" d="M0 0L1805 0L1805 1024L0 1024L0 0Z"/><path fill="#354C33" transform="matrix(1.20067 0 0 1.20117 0 -3.05176e-05)" d="M889.186 77.8887C901.879 75.2993 903.208 78.1998 911.971 77.7298C912.117 77.802 912.263 77.8742 912.409 77.9465C958.651 87.2 995.612 112.607 1013.03 157.324C1023.84 185.063 1024.32 219.084 1036.83 244.805C1056.34 284.929 1080.8 312.112 1095.37 355.859C1114.07 344.091 1130.37 321.928 1135.46 300.419C1132.47 295.462 1128.44 289.545 1125.43 284.989C1117.59 273.114 1120.45 261.247 1136.46 264.839C1138.91 265.388 1144.23 270.299 1146.02 271.904C1147.85 263.722 1155.82 232.732 1172.79 249.554C1174.47 251.216 1174.15 258.92 1176.29 261.444L1176.76 261.109C1184.1 255.947 1191.45 253.797 1198.5 262.483C1201.41 266.069 1197.24 275.026 1195.62 279.109C1208.15 290.853 1205.27 296.117 1191.16 304.544C1182.37 309.795 1176.75 315.249 1167.08 319.066C1153.67 348.822 1135.5 373.081 1103.77 385.244C1103.04 385.517 1102.3 385.758 1101.55 385.966C1111.89 473.778 1076.5 553.758 997.883 597.04C1000.2 612.961 1001.48 625.78 999.212 641.887C1010.22 646.508 1029.56 657.237 1023.07 670.173C1016.3 683.663 948.316 683.119 947.272 663.505C946.533 649.641 946.229 631.339 945.415 617.422C912.132 623.773 896.777 623.44 863.031 619.294C862.263 630.15 863.927 664.679 857.093 670.792C843.423 683.018 752.917 686.762 794.253 648.937C796.853 646.572 805.615 642.968 809.27 641.623C807.585 626.739 807.809 616.421 810.337 601.701C757.92 573.652 723.533 538.15 705.976 479.856C697.138 449.809 694.771 418.23 699.032 387.202C665.492 369.995 649.847 354.549 634.595 319.605C626.217 316.385 596.026 297.84 598.543 287.089C601.198 283.494 602.692 282.323 606.123 279.381C604.718 275.826 602.128 272.753 602.073 269.115C601.804 251.453 615.947 256.88 626.165 260.788C627.47 255.994 625.714 250.581 631.28 247.16C647.371 237.268 651.842 260.932 656.878 271.213C663.76 265.268 670.384 259.589 678.703 268.235C680.587 270.193 681.21 273.447 680.738 276.071C678.766 284.678 670.929 292.368 666.305 300.44C672.645 323.126 684.948 343.159 705.282 355.915C711.228 339.628 716.212 326.769 724.888 311.446C736.863 290.01 751.531 269.53 761.669 247.138C770.548 227.528 775.227 204.307 779.471 183.203C791.094 125.403 831.061 87.9332 889.186 77.8887Z"/><path fill="#85A160" transform="matrix(1.20067 0 0 1.20117 0 -3.05176e-05)" d="M892.392 101.692C917.197 99.6034 941.841 107.251 961.105 123.016C1006.17 159.812 993.104 204.449 1013.57 252.674C1021.72 272.205 1034.12 289.184 1045.7 306.675C1126.99 429.421 1058.23 584.862 909.732 600.044C863.642 600.883 823.243 589.566 786.769 560.562C749.982 531.089 726.365 488.249 721.083 441.411C715.689 396.174 726.25 350.472 750.946 312.186C766.034 289.183 778.094 274.168 788.443 247.775C803.23 210.067 797.016 171.099 823.766 138.751C842.764 115.778 863.1 104.954 892.392 101.692Z"/><path fill="#E2D170" transform="matrix(1.20067 0 0 1.20117 0 -3.05176e-05)" d="M892.519 127.218C892.883 127.163 893.248 127.116 893.613 127.076C911.83 125.076 931.756 131.554 945.955 143.033C973.533 165.331 973.893 195.572 979.984 227.361C982.418 239.903 986.118 252.166 991.028 263.961C1001.38 288.265 1014.58 303.953 1028.53 325.423C1043.18 348.117 1052.29 373.936 1055.13 400.797C1059.93 443.11 1047.47 485.569 1020.58 518.59C991.235 554.482 954.327 571.691 908.989 576.175C824.425 579.025 755.875 523.863 745.087 439.174C740.467 399.911 749.545 360.256 770.785 326.911C786.512 301.979 801.399 283.969 812.139 255.108C815.918 244.885 818.868 234.375 820.959 223.678C825.473 200.023 826.613 174.624 842.266 155.13C855.888 138.164 871.1 129.84 892.519 127.218Z"/><path fill="#794A33" transform="matrix(1.20067 0 0 1.20117 0 -3.05176e-05)" d="M793.154 452.032C778.456 404.824 796.597 353.574 837.724 326.122C878.851 298.669 933.145 301.568 971.115 333.242C1007.65 363.717 1020.83 414.006 1003.93 458.478C987.044 502.95 943.801 531.814 896.247 530.36C848.693 528.906 807.295 497.453 793.154 452.032Z"/><path fill="#58372A" transform="matrix(1.20067 0 0 1.20117 0 -3.05176e-05)" d="M793.154 452.032L795.16 450.789C797.693 451.732 801.641 457.363 803.633 459.722C816.021 474.394 829.705 486.19 847.977 492.856C873.518 502.046 901.662 500.736 926.238 489.212C951.257 477.618 970.605 456.509 979.977 430.579C987.619 409.472 988.278 384.663 982.26 362.751C980.659 356.924 973.709 345.309 971.274 339.231C969.811 335.58 969.878 336.223 971.115 333.242C1007.65 363.717 1020.83 414.006 1003.93 458.478C987.044 502.95 943.801 531.814 896.247 530.36C848.693 528.906 807.295 497.453 793.154 452.032Z"/><path fill="#A1694C" transform="matrix(1.20067 0 0 1.20117 0 -3.05176e-05)" d="M851.002 342.199C890.358 341.23 882.093 396.988 842.888 403.495C800.781 402.859 811.901 347.578 851.002 342.199Z"/><path fill="#354C33" transform="matrix(1.20067 0 0 1.20117 0 -3.05176e-05)" d="M876.092 260.814C882.836 261.66 891.913 265.495 898.507 265.47C906.78 265.369 915.098 262.466 923.334 262.209C930.273 261.993 934.64 265.892 934.337 272.98C933.958 281.826 928.562 287.805 922.411 293.512C921.235 294.184 920.044 294.828 918.839 295.446C909.833 300.084 899.342 300.91 889.722 297.738C874.359 292.679 854.443 271.078 876.092 260.814Z"/><path fill="#E49190" transform="matrix(1.20067 0 0 1.20117 0 -3.05176e-05)" d="M896.903 280.392C907.92 279.437 913.411 281.2 922.141 287.59C916.411 291.445 913.073 292.74 906.397 294.353C894.944 294.817 891.159 293.568 881.155 288.53C886.769 283.982 890.06 282.593 896.903 280.392Z"/><path fill="#354C33" transform="matrix(1.20067 0 0 1.20117 0 -3.05176e-05)" d="M850.007 219.913C859.512 219.189 867.863 226.169 868.835 235.651C869.807 245.132 863.048 253.662 853.594 254.882C847.254 255.7 840.97 253.015 837.181 247.867C833.391 242.72 832.694 235.922 835.36 230.113C838.025 224.303 843.634 220.398 850.007 219.913Z"/><path fill="#E0E4D8" transform="matrix(1.20067 0 0 1.20117 0 -3.05176e-05)" d="M842.411 226.973C844.894 225.393 848.185 226.106 849.792 228.571C851.399 231.036 850.722 234.335 848.274 235.968C846.667 237.041 844.608 237.167 842.881 236.299C841.155 235.431 840.028 233.703 839.931 231.773C839.834 229.844 840.781 228.01 842.411 226.973Z"/><path fill="#354C33" transform="matrix(1.20067 0 0 1.20117 0 -3.05176e-05)" d="M946.02 220.092C955.397 218.333 964.446 224.439 966.323 233.791C968.201 243.144 962.209 252.268 952.88 254.263C946.739 255.577 940.367 253.486 936.198 248.79C932.029 244.094 930.709 237.519 932.743 231.578C934.776 225.637 939.848 221.249 946.02 220.092Z"/><path fill="#E0E4D8" transform="matrix(1.20067 0 0 1.20117 0 -3.05176e-05)" d="M940.53 226.89C942.932 225.404 946.075 226.032 947.72 228.328C949.366 230.623 948.952 233.801 946.774 235.598C945.227 236.875 943.097 237.183 941.252 236.397C939.406 235.611 938.152 233.863 938.001 231.863C937.849 229.863 938.824 227.945 940.53 226.89Z"/><path fill="#85A160" transform="matrix(1.20067 0 0 1.20117 0 -3.05176e-05)" d="M636.629 250.684C638.879 250.672 639.118 250.846 641.28 251.62C646.149 256.025 647.824 268.285 651.483 276.279C646.281 279.846 640.22 283.989 638.517 290.436C637.554 294.083 636.95 302.549 641.478 303.776C645.638 300.466 642.419 292.895 649.921 285.813C654.571 281.423 664.8 271.015 671.518 270.715C673.822 272.32 673.067 271.455 674.291 274.123C674.124 279.393 663.203 294.092 659.487 300.612C668.296 329.325 680.094 345.143 703.787 362.739C702.994 366.901 701.489 377.731 698.839 380.225L696.852 379.564C667.272 366.077 651.064 342.596 638.838 313.906C627.997 311.027 627.328 308.515 619.027 301.304C614.796 297.629 601.803 296.042 604.993 287.44C613.103 283.416 617.549 293.924 623.631 289.32C624.375 280.736 607.186 277.425 609.071 266.095C611.617 262.919 610.329 263.825 613.876 262.358C622.796 262.666 626.127 276.583 633.809 276.352C640.402 269.099 626.363 261.161 636.629 250.684Z"/><path fill="#85A160" transform="matrix(1.20067 0 0 1.20117 0 -3.05176e-05)" d="M1163.68 248.969C1177.1 258.129 1161.35 266.593 1167.25 276.046C1173.69 277.502 1178.42 264.787 1187.23 262.298C1204.78 266.666 1179.12 282.839 1177.73 287.965C1180.17 293.271 1190.61 284.754 1196.72 288.573C1196.95 291.341 1195.48 293.955 1193.09 295.212C1181.98 301.058 1174.53 310.542 1162.38 313.545C1149.84 346.185 1134.54 362.906 1103.89 378.98L1101.77 379.451C1099.4 377.304 1097.94 366.448 1097.2 362.536C1122.34 346.668 1132.21 327.641 1142.36 301.198C1139 294.06 1127.11 278.361 1127.66 273.462C1129.51 270.986 1128.6 271.497 1131.21 270.576C1138.01 271.581 1150.66 283.884 1155.52 289.133C1156.81 290.527 1156.81 299.495 1159.57 303.044L1161.11 303.17L1162.76 301.626C1163.99 298.012 1163.36 292.425 1163.17 288.449C1158.88 281.67 1157.19 280.254 1150.23 276.226C1154.33 265.39 1155.06 256.906 1163.68 248.969Z"/><path fill="#85A160" transform="matrix(1.20067 0 0 1.20117 0 -3.05176e-05)" d="M991.266 601.034C996.258 605.98 993.186 639.465 992.669 646.805C1001.71 648.918 1006.72 650.906 1013.79 657.247C1034.71 676.005 987.725 672.773 979.838 672.489C961.987 672.349 951.083 669.12 952.54 648.918C953.267 638.832 952.271 625.556 950.994 615.554C967.638 610.935 975.322 608.385 991.266 601.034Z"/><path fill="#85A160" transform="matrix(1.20067 0 0 1.20117 0 -3.05176e-05)" d="M815.885 604.667C829.51 610.233 842.344 614.679 856.807 617.429C856.124 630.791 856.345 644.442 855.79 657.629C855.228 670.998 839.134 672.025 828.483 672.497C819.452 672.981 794.633 675.243 790.548 665.775C790.789 653.647 806.529 648.838 815.907 646.685C814.611 629.142 813.873 621.96 815.885 604.667Z"/><path fill="#354C33" transform="matrix(1.20067 0 0 1.20117 0 -3.05176e-05)" d="M1333.39 646.089C1345.5 645.476 1365.55 644.589 1366.44 661.226C1367.52 681.597 1367.08 702.247 1367.07 722.68L1367.09 840.633C1367.15 860.974 1366.51 888.161 1368.22 908.008C1372.03 912.236 1375.7 916.582 1379.24 921.039C1380.43 947.504 1370.28 963.511 1340.78 951.874C1329.07 947.253 1324.11 934.488 1320.39 923.183C1291.37 954.066 1264.15 964.215 1222.45 951.9C1212.87 948.186 1203.52 943.006 1195.99 935.816C1153.14 894.873 1153.53 805.34 1193.34 762.584C1208.57 746.223 1228.65 737.373 1250.9 736.945C1278.17 736.42 1295.62 743.848 1315.17 762.431L1314.99 696.854C1314.97 685.426 1314.44 666.874 1316.07 656.248C1321.27 649.485 1325.26 648.07 1333.39 646.089Z"/><path fill="#E0E4D8" transform="matrix(1.20067 0 0 1.20117 0 -3.05176e-05)" d="M1267 781.115C1285.7 779.979 1300.83 787.445 1314.6 799.128C1315.59 828.181 1314.57 862.707 1314.45 892.171C1298.85 904.474 1287.72 912.821 1267.15 913.278C1234.1 912.6 1220.05 887.942 1217.33 858.255C1214.02 822.134 1224.92 784.967 1267 781.115Z"/><path fill="#354C33" transform="matrix(1.20067 0 0 1.20117 0 -3.05176e-05)" d="M564.465 738.348C624.619 728.527 681.305 769.443 690.92 829.622C700.535 889.802 659.419 946.34 599.199 955.747C539.273 965.107 483.063 924.239 473.494 864.353C463.926 804.466 504.604 748.122 564.465 738.348Z"/><path fill="#E0E4D8" transform="matrix(1.20067 0 0 1.20117 0 -3.05176e-05)" d="M575.523 781.072C604.807 778.59 625.69 792.5 632.172 822.039C636.908 843.618 635.883 872.266 624.002 891.553C615.84 904.802 605 909.677 590.401 912.907C577.23 913.917 562.154 912.382 551.277 903.923C523.896 882.627 523.812 825.822 542.51 798.977C550.303 787.79 562.638 782.853 575.523 781.072Z"/><path fill="#354C33" transform="matrix(1.20067 0 0 1.20117 0 -3.05176e-05)" d="M1512.9 737.09C1540.27 735.64 1568.73 741.329 1590.69 759.147C1634.81 794.932 1638.05 878.998 1602.87 921.756C1583.27 945.59 1558.95 953.937 1528.8 956.671L1528.38 956.706C1466.7 961.766 1419.83 922.907 1415.9 860.988C1411.57 793.008 1441.8 742.78 1512.9 737.09Z"/><path fill="#E0E4D8" transform="matrix(1.20067 0 0 1.20117 0 -3.05176e-05)" d="M1514.51 780.998C1526.82 780.364 1539.1 781.532 1549.7 789.07C1578.74 809.719 1578.89 866.333 1560.58 893.929C1552.71 905.785 1540.98 910.668 1527.58 912.874C1514.96 913.5 1503.06 912.458 1492.13 904.808C1463.23 884.58 1462.88 828.568 1480.58 801.029C1488.59 788.555 1500.76 783.613 1514.51 780.998Z"/><path fill="#354C33" transform="matrix(1.20067 0 0 1.20117 0 -3.05176e-05)" d="M234.577 657.547C271.051 655.196 270.012 669.585 279.283 699.223L294.31 747.324C309.28 795.165 326.795 848.089 340.056 896.116C343.877 884.847 347.18 871.548 350.953 859.757L391.749 732.387C398.518 711.342 404.708 689.872 412.981 669.391C419.459 653.352 456.445 653.351 462.998 667.397C468.862 679.964 455.584 709.645 450.759 723.275C445.615 736.367 440.001 753.762 435.259 767.23C421.253 808.082 407.021 848.856 392.564 889.55C386.223 907.011 378.977 929.192 370.79 944.772C363.446 958.748 323.675 958.201 312.519 949.344C307.73 945.543 306.231 944.348 303.944 938.662C297.051 921.528 291.28 903.932 285.316 886.473L252.484 789.275L230.231 723.88C225.793 710.914 220.661 697.491 217.55 684.194C213.81 668.214 219.312 660.755 234.577 657.547Z"/><path fill="#354C33" transform="matrix(1.20067 0 0 1.20117 0 -3.05176e-05)" d="M1012.26 737.932C1022.04 737.002 1031.87 736.879 1041.67 737.563C1144.05 745.005 1105.26 841.904 1117.45 907.954C1117.95 910.64 1125.68 919.266 1127.95 921.892C1131.28 949.779 1118.47 963.362 1089.69 950.166C1078.48 945.031 1073.66 934.589 1070.38 923.218C1058.07 934.846 1046.69 945.32 1030.39 950.976C1006.62 959.226 985.849 957.734 963.384 947.308C929.709 928.068 922.775 878.45 949.958 851.078C976.861 823.988 1026.93 824.446 1063.03 824.234C1063.54 778.699 1041.46 775.814 1002.31 782.941C988.469 785.46 966.619 797.506 954.252 788.804C946.645 783.451 944.845 766.451 951.113 759.64C965.003 744.549 993.213 740.045 1012.26 737.932Z"/><path fill="#E0E4D8" transform="matrix(1.20067 0 0 1.20117 0 -3.05176e-05)" d="M1049.97 857.006C1054.46 856.867 1059.19 856.909 1063.7 856.874C1063.48 869.022 1063.33 881.172 1063.24 893.322C1046.14 911.287 1025.09 921.374 999.996 914.206C990.136 909.822 984.816 904.403 984.267 893.245C982.48 856.925 1024.57 857.894 1049.97 857.006Z"/><path fill="#354C33" transform="matrix(1.20067 0 0 1.20117 0 -3.05176e-05)" d="M822.757 737.082C826.749 736.877 830.747 736.799 834.744 736.849C854.572 737.206 881.379 740.646 895.878 755.357C905.528 765.149 902.173 780.415 892.5 788.919C878.619 801.124 869.127 788.938 855.428 783.959C849.285 781.727 842.806 780.617 836.316 780.185C798.567 778.154 778.848 808.117 778.973 842.792C779.047 863.327 780.588 883.32 795.571 899.243C812.13 916.841 837.922 915.533 858.507 906.971C866.856 903.521 878.168 895.459 886.961 895.46C890.531 895.46 895.994 901.607 898.522 904.255C923.782 941.226 863.387 954.493 838.399 956.357C775.008 961.062 729.862 925.258 725.588 860.846C721.066 792.693 751.134 742.291 822.757 737.082Z"/><path fill="#58372A" transform="matrix(1.20067 0 0 1.20117 0 -3.05176e-05)" d="M889.186 77.8887C888.206 66.0236 886.148 52.8412 893.53 42.4843C896.57 38.2189 901.61 35.0255 905.816 39.7976C913.694 48.7361 912.106 66.4444 911.971 77.7298C903.208 78.1998 901.879 75.2993 889.186 77.8887Z"/></g></svg>