<svg version="1.1" id="Layer_1" xmlns="http://www.w3.org/2000/svg" xmlns:xlink="http://www.w3.org/1999/xlink" x="0px" y="0px"
	 width="100%" viewBox="0 0 1139 309" xml:space="preserve">
<path fill="none" opacity="0" stroke="none"
	d="
M750.000000,310.000000 
	C500.000000,310.000000 250.500000,310.000000 1.000000,310.000000 
	C1.000000,207.000000 1.000000,104.000000 1.000000,1.000000 
	C380.666656,1.000000 760.333313,1.000000 1140.000000,1.000000 
	C1140.000000,104.000000 1140.000000,207.000000 1140.000000,310.000000 
	C1010.166687,310.000000 880.333313,310.000000 750.000000,310.000000 
M275.178131,34.071106 
	C274.554138,34.299522 273.947266,34.609531 273.303680,34.744576 
	C249.876907,39.660152 232.792542,52.221519 225.196609,75.584839 
	C222.663116,83.377190 221.530273,91.614136 219.470322,99.573616 
	C215.891052,113.403664 210.237366,126.274269 201.680542,137.853073 
	C182.219406,164.187180 176.713348,193.827911 183.013123,225.434341 
	C187.773346,249.316833 200.929901,268.873779 219.827362,283.941895 
	C248.773590,307.022522 281.785004,310.785706 315.980225,299.306061 
	C345.964172,289.240173 365.651215,267.388306 377.111847,238.029449 
	C383.560638,221.509491 383.775726,204.491821 382.108246,187.140884 
	C380.420837,169.582214 373.176361,154.403931 362.983917,140.521942 
	C351.498199,124.878441 344.573273,107.656174 341.929688,88.419525 
	C339.502991,70.760925 330.683716,56.580147 316.442383,45.746033 
	C307.933105,39.272598 298.068115,36.268440 287.943634,33.004631 
	C287.967224,29.344528 287.987885,25.684404 288.015198,22.024328 
	C288.047516,17.690615 286.260406,15.275425 281.585754,15.016001 
	C276.192841,14.716717 276.325134,18.483410 276.124908,21.920879 
	C275.893005,25.901161 275.990662,29.900635 275.178131,34.071106 
M1081.110229,281.605225 
	C1098.540771,270.514130 1110.210449,254.634903 1117.768188,235.812027 
	C1127.425537,211.759827 1128.136597,187.035263 1122.583008,161.738922 
	C1118.229492,141.908264 1107.465942,125.973389 1094.021973,111.717888 
	C1085.868896,103.072624 1075.560303,97.112770 1064.339722,92.514465 
	C1047.416626,85.579369 1029.818481,84.175514 1012.254272,86.460083 
	C996.876160,88.460289 982.359680,94.105431 969.726807,103.994400 
	C955.335571,115.259758 943.964722,128.808868 937.246033,145.745300 
	C928.824463,166.974136 927.200378,189.162384 930.061401,211.726639 
	C931.940430,226.546097 936.848083,240.263245 945.111450,252.746124 
	C956.256897,269.582489 970.882629,282.175446 989.495056,290.320953 
	C1007.408508,298.160553 1026.106812,299.779205 1044.946045,296.700348 
	C1057.651245,294.623962 1069.752197,289.566193 1081.110229,281.605225 
M900.993835,257.496979 
	C908.809692,247.950912 913.540955,236.833511 916.957153,225.160843 
	C921.828308,208.516800 921.774902,191.518219 920.044312,174.413284 
	C917.721619,151.455627 907.649414,132.198730 892.087219,115.626831 
	C883.957764,106.969872 873.649292,101.526161 862.983765,96.470238 
	C851.374268,90.966858 839.302002,88.295647 826.610352,88.163086 
	C810.122498,87.990868 793.567078,88.939056 777.169006,87.702888 
	C768.481445,87.047974 763.237488,90.974472 757.741699,95.795113 
	C752.172241,100.680290 752.218445,107.604515 752.204041,114.182121 
	C752.088440,166.981216 752.106750,219.780624 752.098633,272.579926 
	C752.096741,285.127502 762.302979,294.997925 775.006897,294.951538 
	C792.328796,294.888306 809.652405,295.051483 826.972473,294.859619 
	C832.057190,294.803284 837.169739,294.105255 842.203979,293.294312 
	C853.510620,291.472961 863.540955,286.315186 873.580139,281.092957 
	C884.394775,275.467438 893.189026,267.647797 900.993835,257.496979 
M679.928772,101.721245 
	C677.893677,98.933006 676.262451,95.693199 673.746155,93.443115 
	C666.822327,87.251862 658.246521,85.380379 649.250610,86.056953 
	C640.179565,86.739189 632.113464,90.194649 627.454163,98.427185 
	C624.419067,103.789909 622.521057,109.809555 620.247803,115.587669 
	C612.463074,135.374649 604.662781,155.156052 597.009216,174.993912 
	C588.459717,197.153824 579.837952,219.290680 571.707458,241.605072 
	C568.236267,251.131882 563.368591,260.303894 563.964050,271.100403 
	C564.504456,280.898254 568.257446,288.829712 576.848267,293.108276 
	C587.237549,298.282654 597.567444,297.332062 606.942871,289.533783 
	C613.443115,284.127014 616.230530,276.826721 618.866333,269.253754 
	C621.177795,262.613068 623.732117,260.912140 630.581848,261.034668 
	C646.043396,261.311279 661.503479,261.672821 676.965210,261.933868 
	C681.691345,262.013672 684.715027,264.028290 686.260010,268.637817 
	C687.623901,272.706909 689.181580,276.768005 691.171875,280.560669 
	C701.426880,300.102142 727.857056,301.576447 739.210571,283.259308 
	C744.268799,275.098663 743.215393,266.399506 740.078247,258.039917 
	C729.469849,229.771591 718.618408,201.593948 707.761169,173.419693 
	C698.632568,149.731216 689.366211,126.095825 679.928772,101.721245 
M150.511505,230.955170 
	C153.731140,222.112015 157.009155,213.289597 160.157455,204.421112 
	C165.591370,189.114243 171.021469,173.805161 176.308243,158.447144 
	C180.786682,145.437271 185.569962,132.498123 189.239502,119.256439 
	C191.558884,110.886917 190.116364,102.508179 184.072998,95.467964 
	C172.856567,82.401421 145.103638,82.787636 138.428986,104.458092 
	C134.446716,117.387253 129.640518,130.062347 125.218727,142.856506 
	C119.287292,160.018768 113.411819,177.200607 107.395752,194.333099 
	C106.580795,196.653946 105.089973,198.737457 103.445816,201.799149 
	C101.924110,199.117142 100.792061,197.656509 100.204811,196.002441 
	C95.453568,182.619751 90.857445,169.182037 86.111252,155.797516 
	C80.045189,138.690918 74.103134,121.535294 67.692345,104.557602 
	C62.663563,91.239876 49.251064,84.327286 35.546215,87.495750 
	C22.911802,90.416740 10.602155,105.768181 16.430761,122.298744 
	C22.508335,139.535385 28.603258,156.766830 34.845871,173.944122 
	C41.109238,191.178497 47.506989,208.364746 53.950569,225.532776 
	C60.926399,244.118912 67.874580,262.718140 75.145676,281.189301 
	C77.793770,287.916382 82.442284,293.517517 89.991615,294.637329 
	C97.174507,295.702820 104.544518,295.799683 111.831245,295.785950 
	C118.477707,295.773407 124.239182,293.034760 127.969658,287.405548 
	C130.418610,283.710083 132.411591,279.612183 133.992493,275.459869 
	C139.529770,260.915833 144.799667,246.269974 150.511505,230.955170 
M557.202637,136.432358 
	C560.162109,129.713394 559.093262,123.312538 555.980774,116.911682 
	C552.355896,109.456947 546.263733,104.634827 539.629944,100.065239 
	C517.658325,84.930534 493.146271,83.133606 468.164124,87.773468 
	C448.480835,91.429184 431.647156,101.333595 417.945892,116.562004 
	C407.555573,128.110504 400.382629,141.122177 395.823486,155.800766 
	C390.421295,173.193649 390.221161,190.902832 391.952271,208.846100 
	C393.261902,222.420792 397.153961,235.196884 403.633759,247.001740 
	C415.371002,268.384552 432.675201,283.487823 455.714508,292.260345 
	C468.073090,296.966064 480.659363,297.022095 493.430084,296.939819 
	C513.962280,296.807556 532.190674,290.151215 547.325989,276.375946 
	C560.073914,264.773529 563.404907,248.830032 548.080444,235.762894 
	C542.720520,231.192490 536.249207,228.292816 529.256653,230.477661 
	C524.022400,232.113113 519.019958,235.036255 514.466003,238.184143 
	C506.255280,243.859818 496.972534,247.458389 487.495392,246.463196 
	C472.440765,244.882309 458.814880,239.019897 452.554535,223.557205 
	C449.862396,216.907837 447.785645,209.786530 446.850189,202.692276 
	C444.448120,184.475647 445.718475,166.559326 458.165100,151.786957 
	C468.255127,139.811493 481.598022,134.084564 497.271393,138.106873 
	C504.618530,139.992416 511.792999,143.594971 518.253967,147.673569 
	C531.960449,156.326050 550.818298,152.117371 557.202637,136.432358 
z"/>
<path fill="#2D4E31" opacity="1.000000" stroke="none" 
	d="
M1080.814453,281.815613 
	C1069.752197,289.566193 1057.651245,294.623962 1044.946045,296.700348 
	C1026.106812,299.779205 1007.408508,298.160553 989.495056,290.320953 
	C970.882629,282.175446 956.256897,269.582489 945.111450,252.746124 
	C936.848083,240.263245 931.940430,226.546097 930.061401,211.726639 
	C927.200378,189.162384 928.824463,166.974136 937.246033,145.745300 
	C943.964722,128.808868 955.335571,115.259758 969.726807,103.994400 
	C982.359680,94.105431 996.876160,88.460289 1012.254272,86.460083 
	C1029.818481,84.175514 1047.416626,85.579369 1064.339722,92.514465 
	C1075.560303,97.112770 1085.868896,103.072624 1094.021973,111.717888 
	C1107.465942,125.973389 1118.229492,141.908264 1122.583008,161.738922 
	C1128.136597,187.035263 1127.425537,211.759827 1117.768188,235.812027 
	C1110.210449,254.634903 1098.540771,270.514130 1080.814453,281.815613 
M1008.191162,141.599030 
	C998.413086,146.942261 991.866516,155.030106 988.094360,165.421661 
	C982.407410,181.087997 982.624634,197.083679 986.293335,213.028198 
	C988.800110,223.922852 994.299255,233.617950 1003.832397,239.670746 
	C1012.831177,245.384308 1022.689209,247.881775 1034.065918,246.246674 
	C1048.938477,244.109146 1063.119385,230.504700 1067.011230,216.364441 
	C1070.059082,205.290680 1070.604736,194.086838 1069.879028,182.844513 
	C1069.094971,170.700775 1064.623779,159.819778 1056.845337,150.236160 
	C1045.913818,136.767975 1024.348145,134.658447 1008.191162,141.599030 
z"/>
<path fill="#2D4E31" opacity="1.000000" stroke="none" 
	d="
M900.737671,257.748291 
	C893.189026,267.647797 884.394775,275.467438 873.580139,281.092957 
	C863.540955,286.315186 853.510620,291.472961 842.203979,293.294312 
	C837.169739,294.105255 832.057190,294.803284 826.972473,294.859619 
	C809.652405,295.051483 792.328796,294.888306 775.006897,294.951538 
	C762.302979,294.997925 752.096741,285.127502 752.098633,272.579926 
	C752.106750,219.780624 752.088440,166.981216 752.204041,114.182121 
	C752.218445,107.604515 752.172241,100.680290 757.741699,95.795113 
	C763.237488,90.974472 768.481445,87.047974 777.169006,87.702888 
	C793.567078,88.939056 810.122498,87.990868 826.610352,88.163086 
	C839.302002,88.295647 851.374268,90.966858 862.983765,96.470238 
	C873.649292,101.526161 883.957764,106.969872 892.087219,115.626831 
	C907.649414,132.198730 917.721619,151.455627 920.044312,174.413284 
	C921.774902,191.518219 921.828308,208.516800 916.957153,225.160843 
	C913.540955,236.833511 908.809692,247.950912 900.737671,257.748291 
M805.949158,226.545929 
	C805.961792,230.711761 805.873047,234.881256 806.023438,239.042114 
	C806.121033,241.742004 807.032166,243.898621 810.414062,243.863831 
	C815.969421,243.806656 821.567383,244.346466 827.075195,243.843246 
	C849.402527,241.803299 859.558289,228.491272 864.760681,210.613373 
	C867.797302,200.177994 868.019897,189.388153 865.904785,178.696823 
	C863.575378,166.922089 859.451050,155.827423 849.501953,148.320068 
	C837.348267,139.149216 823.257629,137.943954 808.730347,140.301041 
	C807.572876,140.488831 806.079895,143.196167 806.012268,144.786575 
	C805.475647,157.410141 804.970642,170.047363 804.996338,182.679276 
	C805.025513,196.975739 805.615540,211.271042 805.949158,226.545929 
z"/>
<path fill="#2D4F31" opacity="1.000000" stroke="none" 
	d="
M680.044800,102.079086 
	C689.366211,126.095825 698.632568,149.731216 707.761169,173.419693 
	C718.618408,201.593948 729.469849,229.771591 740.078247,258.039917 
	C743.215393,266.399506 744.268799,275.098663 739.210571,283.259308 
	C727.857056,301.576447 701.426880,300.102142 691.171875,280.560669 
	C689.181580,276.768005 687.623901,272.706909 686.260010,268.637817 
	C684.715027,264.028290 681.691345,262.013672 676.965210,261.933868 
	C661.503479,261.672821 646.043396,261.311279 630.581848,261.034668 
	C623.732117,260.912140 621.177795,262.613068 618.866333,269.253754 
	C616.230530,276.826721 613.443115,284.127014 606.942871,289.533783 
	C597.567444,297.332062 587.237549,298.282654 576.848267,293.108276 
	C568.257446,288.829712 564.504456,280.898254 563.964050,271.100403 
	C563.368591,260.303894 568.236267,251.131882 571.707458,241.605072 
	C579.837952,219.290680 588.459717,197.153824 597.009216,174.993912 
	C604.662781,155.156052 612.463074,135.374649 620.247803,115.587669 
	C622.521057,109.809555 624.419067,103.789909 627.454163,98.427185 
	C632.113464,90.194649 640.179565,86.739189 649.250610,86.056953 
	C658.246521,85.380379 666.822327,87.251862 673.746155,93.443115 
	C676.262451,95.693199 677.893677,98.933006 680.044800,102.079086 
M665.567322,215.929611 
	C666.230042,214.490128 667.774780,212.769714 667.419556,211.654495 
	C663.727600,200.064056 659.784973,188.551651 655.753723,177.073181 
	C655.192810,175.476105 653.776917,174.179321 652.539246,172.437271 
	C651.856262,173.391281 651.231140,173.958542 650.980652,174.659668 
	C646.600525,186.918457 642.169250,199.161499 638.076599,211.516464 
	C637.680847,212.711411 639.445984,214.622131 640.913452,216.575256 
	C648.889465,216.433960 656.865417,216.292664 665.567322,215.929611 
z"/>
<path fill="#2D4E31" opacity="1.000000" stroke="none" 
	d="
M150.341309,231.308975 
	C144.799667,246.269974 139.529770,260.915833 133.992493,275.459869 
	C132.411591,279.612183 130.418610,283.710083 127.969658,287.405548 
	C124.239182,293.034760 118.477707,295.773407 111.831245,295.785950 
	C104.544518,295.799683 97.174507,295.702820 89.991615,294.637329 
	C82.442284,293.517517 77.793770,287.916382 75.145676,281.189301 
	C67.874580,262.718140 60.926399,244.118912 53.950569,225.532776 
	C47.506989,208.364746 41.109238,191.178497 34.845871,173.944122 
	C28.603258,156.766830 22.508335,139.535385 16.430761,122.298744 
	C10.602155,105.768181 22.911802,90.416740 35.546215,87.495750 
	C49.251064,84.327286 62.663563,91.239876 67.692345,104.557602 
	C74.103134,121.535294 80.045189,138.690918 86.111252,155.797516 
	C90.857445,169.182037 95.453568,182.619751 100.204811,196.002441 
	C100.792061,197.656509 101.924110,199.117142 103.445816,201.799149 
	C105.089973,198.737457 106.580795,196.653946 107.395752,194.333099 
	C113.411819,177.200607 119.287292,160.018768 125.218727,142.856506 
	C129.640518,130.062347 134.446716,117.387253 138.428986,104.458092 
	C145.103638,82.787636 172.856567,82.401421 184.072998,95.467964 
	C190.116364,102.508179 191.558884,110.886917 189.239502,119.256439 
	C185.569962,132.498123 180.786682,145.437271 176.308243,158.447144 
	C171.021469,173.805161 165.591370,189.114243 160.157455,204.421112 
	C157.009155,213.289597 153.731140,222.112015 150.341309,231.308975 
z"/>
<path fill="#2D4F31" opacity="1.000000" stroke="none" 
	d="
M557.038818,136.787872 
	C550.818298,152.117371 531.960449,156.326050 518.253967,147.673569 
	C511.792999,143.594971 504.618530,139.992416 497.271393,138.106873 
	C481.598022,134.084564 468.255127,139.811493 458.165100,151.786957 
	C445.718475,166.559326 444.448120,184.475647 446.850189,202.692276 
	C447.785645,209.786530 449.862396,216.907837 452.554535,223.557205 
	C458.814880,239.019897 472.440765,244.882309 487.495392,246.463196 
	C496.972534,247.458389 506.255280,243.859818 514.466003,238.184143 
	C519.019958,235.036255 524.022400,232.113113 529.256653,230.477661 
	C536.249207,228.292816 542.720520,231.192490 548.080444,235.762894 
	C563.404907,248.830032 560.073914,264.773529 547.325989,276.375946 
	C532.190674,290.151215 513.962280,296.807556 493.430084,296.939819 
	C480.659363,297.022095 468.073090,296.966064 455.714508,292.260345 
	C432.675201,283.487823 415.371002,268.384552 403.633759,247.001740 
	C397.153961,235.196884 393.261902,222.420792 391.952271,208.846100 
	C390.221161,190.902832 390.421295,173.193649 395.823486,155.800766 
	C400.382629,141.122177 407.555573,128.110504 417.945892,116.562004 
	C431.647156,101.333595 448.480835,91.429184 468.164124,87.773468 
	C493.146271,83.133606 517.658325,84.930534 539.629944,100.065239 
	C546.263733,104.634827 552.355896,109.456947 555.980774,116.911682 
	C559.093262,123.312538 560.162109,129.713394 557.038818,136.787872 
z"/>
<path fill="#2D4F30" opacity="1.000000" stroke="none" 
	d="
M287.891785,33.921913 
	C298.068115,36.268440 307.933105,39.272598 316.442383,45.746033 
	C330.683716,56.580147 339.502991,70.760925 341.929688,88.419525 
	C344.573273,107.656174 351.498199,124.878441 362.983917,140.521942 
	C373.176361,154.403931 380.420837,169.582214 382.108246,187.140884 
	C383.775726,204.491821 383.560638,221.509491 377.111847,238.029449 
	C365.651215,267.388306 345.964172,289.240173 315.980225,299.306061 
	C281.785004,310.785706 248.773590,307.022522 219.827362,283.941895 
	C200.929901,268.873779 187.773346,249.316833 183.013123,225.434341 
	C176.713348,193.827911 182.219406,164.187180 201.680542,137.853073 
	C210.237366,126.274269 215.891052,113.403664 219.470322,99.573616 
	C221.530273,91.614136 222.663116,83.377190 225.196609,75.584839 
	C232.792542,52.221519 249.876907,39.660152 273.303680,34.744576 
	C273.947266,34.609531 274.554138,34.299522 275.964417,34.045937 
	C280.464386,33.987816 284.178101,33.954865 287.891785,33.921913 
M322.668915,282.805634 
	C356.588226,264.920959 376.104980,225.415726 370.314697,187.553848 
	C367.569366,169.602341 358.816711,154.735901 348.517761,140.438049 
	C340.625519,129.481384 334.929169,117.532555 332.327301,104.224937 
	C331.113373,98.015961 330.377228,91.704857 328.969879,85.543907 
	C321.837463,54.320900 289.627960,37.647133 261.838562,50.609852 
	C245.146591,58.396046 237.210526,72.469864 234.124634,89.701584 
	C231.587845,103.867058 229.072678,117.966797 221.341507,130.427948 
	C216.601654,138.067673 211.393829,145.417862 206.680466,153.073135 
	C181.454132,194.044769 190.510559,245.865112 228.211014,274.665039 
	C240.908234,284.781830 255.442413,290.735840 271.449249,292.626221 
	C289.210571,294.723785 306.277344,292.102509 322.668915,282.805634 
z"/>
<path fill="#5F3C28" opacity="1.000000" stroke="none" 
	d="
M287.917725,33.463272 
	C284.178101,33.954865 280.464386,33.987816 276.347961,33.956272 
	C275.990662,29.900635 275.893005,25.901161 276.124908,21.920879 
	C276.325134,18.483410 276.192841,14.716717 281.585754,15.016001 
	C286.260406,15.275425 288.047516,17.690615 288.015198,22.024328 
	C287.987885,25.684404 287.967224,29.344528 287.917725,33.463272 
z"/>
<path fill="#000000" opacity="1.000000" stroke="none" 
	d="
M1008.515991,141.405579 
	C1024.348145,134.658447 1045.913818,136.767975 1056.845337,150.236160 
	C1064.623779,159.819778 1069.094971,170.700775 1069.879028,182.844513 
	C1070.604736,194.086838 1070.059082,205.290680 1067.011230,216.364441 
	C1063.119385,230.504700 1048.938477,244.109146 1034.065918,246.246674 
	C1022.689209,247.881775 1012.831177,245.384308 1003.832397,239.670746 
	C994.299255,233.617950 988.800110,223.922852 986.293335,213.028198 
	C982.624634,197.083679 982.407410,181.087997 988.094360,165.421661 
	C991.866516,155.030106 998.413086,146.942261 1008.515991,141.405579 
z"/>
<path fill="#000000" opacity="1.000000" stroke="none" 
	d="
M805.955444,226.056396 
	C805.615540,211.271042 805.025513,196.975739 804.996338,182.679276 
	C804.970642,170.047363 805.475647,157.410141 806.012268,144.786575 
	C806.079895,143.196167 807.572876,140.488831 808.730347,140.301041 
	C823.257629,137.943954 837.348267,139.149216 849.501953,148.320068 
	C859.451050,155.827423 863.575378,166.922089 865.904785,178.696823 
	C868.019897,189.388153 867.797302,200.177994 864.760681,210.613373 
	C859.558289,228.491272 849.402527,241.803299 827.075195,243.843246 
	C821.567383,244.346466 815.969421,243.806656 810.414062,243.863831 
	C807.032166,243.898621 806.121033,241.742004 806.023438,239.042114 
	C805.873047,234.881256 805.961792,230.711761 805.955444,226.056396 
z"/>
<path fill="#000000" opacity="1.000000" stroke="none" 
	d="
M640.207947,216.200592 
	C639.445984,214.622131 637.680847,212.711411 638.076599,211.516464 
	C642.169250,199.161499 646.600525,186.918457 650.980652,174.659668 
	C651.231140,173.958542 651.856262,173.391281 652.539246,172.437271 
	C653.776917,174.179321 655.192810,175.476105 655.753723,177.073181 
	C659.784973,188.551651 663.727600,200.064056 667.419556,211.654495 
	C667.774780,212.769714 666.230042,214.490128 664.745972,216.016418 
	C656.019104,216.135696 648.113525,216.168137 640.207947,216.200592 
z"/>
<path fill="#7D947B" opacity="1.000000" stroke="none" 
	d="
M640.560669,216.387924 
	C648.113525,216.168137 656.019104,216.135696 664.383057,216.127304 
	C656.865417,216.292664 648.889465,216.433960 640.560669,216.387924 
z"/>
<path fill="#719C58" opacity="1.000000" stroke="none" 
	d="
M227.753632,274.162903 
	C190.510559,245.865112 181.454132,194.044769 206.680466,153.073135 
	C211.393829,145.417862 216.601654,138.067673 221.341507,130.427948 
	C229.072678,117.966797 231.587845,103.867058 234.124634,89.701584 
	C237.210526,72.469864 245.146591,58.396046 261.838562,50.609852 
	C289.627960,37.647133 321.837463,54.320900 328.969879,85.543907 
	C330.377228,91.704857 331.113373,98.015961 332.327301,104.224937 
	C334.929169,117.532555 340.625519,129.481384 348.517761,140.438049 
	C358.816711,154.735901 367.569366,169.602341 370.314697,187.553848 
	C376.104980,225.415726 356.588226,264.920959 322.404816,282.563843 
	C323.008606,277.607117 323.876465,272.892181 324.947723,267.953064 
	C340.132843,256.688660 350.618774,242.324066 355.811005,224.482147 
	C363.846191,196.871231 356.830414,172.158615 340.102203,149.675659 
	C328.841217,134.540695 321.449219,117.912178 318.871643,99.106598 
	C318.041718,93.051636 316.617065,86.919945 314.395599,81.241531 
	C305.079681,57.428429 274.515869,51.143246 256.730164,69.202263 
	C250.410751,75.618790 247.688156,83.752998 245.836319,92.366135 
	C243.671021,102.437294 242.432449,112.994987 238.399048,122.304977 
	C233.284348,134.110855 226.067383,145.064117 219.214996,156.046906 
	C205.004150,178.823532 200.686203,202.879715 208.995285,228.692200 
	C213.719833,243.369263 222.697205,255.206100 234.189728,265.323914 
	C231.863358,268.472900 229.808487,271.317902 227.753632,274.162903 
z"/>
<path fill="#6D9956" opacity="1.000000" stroke="none" 
	d="
M324.744354,268.177277 
	C323.876465,272.892181 323.008606,277.607117 322.074036,282.661804 
	C306.277344,292.102509 289.210571,294.723785 271.449249,292.626221 
	C255.442413,290.735840 240.908234,284.781830 227.982330,274.413971 
	C229.808487,271.317902 231.863358,268.472900 234.494324,265.527893 
	C247.351334,274.180389 260.820312,279.812256 275.968811,281.106995 
	C293.781982,282.629517 309.859833,277.670105 324.744354,268.177277 
z"/>
<path fill="#E4CD55" opacity="1.000000" stroke="none" 
	d="
M324.947723,267.953064 
	C309.859833,277.670105 293.781982,282.629517 275.968811,281.106995 
	C260.820312,279.812256 247.351334,274.180389 234.765823,265.223877 
	C222.697205,255.206100 213.719833,243.369263 208.995285,228.692200 
	C200.686203,202.879715 205.004150,178.823532 219.214996,156.046906 
	C226.067383,145.064117 233.284348,134.110855 238.399048,122.304977 
	C242.432449,112.994987 243.671021,102.437294 245.836319,92.366135 
	C247.688156,83.752998 250.410751,75.618790 256.730164,69.202263 
	C274.515869,51.143246 305.079681,57.428429 314.395599,81.241531 
	C316.617065,86.919945 318.041718,93.051636 318.871643,99.106598 
	C321.449219,117.912178 328.841217,134.540695 340.102203,149.675659 
	C356.830414,172.158615 363.846191,196.871231 355.811005,224.482147 
	C350.618774,242.324066 340.132843,256.688660 324.947723,267.953064 
M310.987396,157.005325 
	C310.987396,157.005325 311.076172,157.006363 310.796478,156.340302 
	C310.349304,156.205261 309.902161,156.070206 309.336121,155.289764 
	C305.165955,153.835617 300.995758,152.381485 296.465454,150.355087 
	C293.030182,149.309021 289.594879,148.262939 285.401581,146.820511 
	C277.196655,145.029739 269.380981,146.217422 261.196747,149.970291 
	C259.797241,150.661621 258.397766,151.352951 256.679443,152.508591 
	C256.151337,152.675247 255.623230,152.841904 254.535812,153.204300 
	C254.026962,153.501694 253.518112,153.799103 252.703934,154.691727 
	C249.441483,157.432022 246.179031,160.172318 242.332886,163.235107 
	C228.681641,177.295242 223.327835,193.838058 227.458298,214.016785 
	C230.147156,220.174149 232.835999,226.331528 235.547501,232.341843 
	C235.547501,232.341843 235.400314,232.320160 235.631348,232.929825 
	C236.283401,233.778076 236.935440,234.626328 237.842850,235.293930 
	C237.842850,235.293930 237.662048,235.038651 237.758728,235.752563 
	C238.160660,235.887207 238.562592,236.021835 238.479904,236.112030 
	C238.479904,236.112030 238.435059,236.596619 238.770111,237.174011 
	C241.491302,239.825790 244.212479,242.477585 246.935242,245.057022 
	C246.935242,245.057022 246.862915,245.055588 247.220154,245.602219 
	C247.810654,245.830246 248.401154,246.058258 248.698227,246.166763 
	C248.698227,246.166763 248.578751,246.460205 248.974976,246.943451 
	C249.867157,247.513535 250.759338,248.083603 252.052917,248.445053 
	C252.052917,248.445053 251.844543,248.043503 251.796921,248.713898 
	C252.200119,248.841980 252.603317,248.970062 252.775772,249.014755 
	C252.775772,249.014755 252.692230,249.245438 253.081009,249.789627 
	C255.013382,250.800919 256.945770,251.812210 259.530762,253.141769 
	C261.067322,253.728256 262.603882,254.314728 264.779541,255.244003 
	C276.534729,259.156067 288.260468,259.554138 300.556488,254.938721 
	C301.081604,254.660812 301.606720,254.382919 302.829132,254.034561 
	C305.037720,252.870087 307.246277,251.705597 309.366974,250.513321 
	C309.366974,250.513321 309.340210,250.601501 309.939362,250.386200 
	C310.791351,249.761276 311.643311,249.136353 312.398102,248.501251 
	C312.398102,248.501251 312.388977,248.598572 313.014343,248.311661 
	C314.951416,246.577942 316.888489,244.844238 319.193970,242.518555 
	C325.028015,235.949936 331.667114,229.930618 334.315674,220.309143 
	C338.527893,207.670013 338.749298,195.155838 333.124146,182.901825 
	C333.124146,182.901825 333.201843,182.919281 333.097107,182.232162 
	C332.156799,180.442642 331.216492,178.653122 330.098785,176.182053 
	C324.759705,170.378586 319.420624,164.575119 313.976959,158.877869 
	C313.976959,158.877869 314.083130,158.982529 313.805389,158.348633 
	C313.199951,158.190659 312.594513,158.032700 311.999207,157.989243 
	C311.999207,157.989243 312.113708,157.979019 312.135071,157.340088 
	C311.752838,157.198914 311.370575,157.057724 310.987396,157.005325 
z"/>
<path fill="#7F452E" opacity="1.000000" stroke="none" 
	d="
M296.825592,150.927353 
	C300.995758,152.381485 305.165955,153.835617 309.687286,155.756134 
	C310.384369,156.483795 310.730255,156.745087 311.076172,157.006363 
	C311.076172,157.006363 310.987396,157.005325 311.176086,157.137512 
	C311.614410,157.506149 311.864044,157.742584 312.113708,157.979019 
	C312.113708,157.979019 311.999207,157.989243 312.243286,158.093399 
	C313.019318,158.459213 313.551208,158.720871 314.083130,158.982529 
	C314.083130,158.982529 313.976959,158.877869 314.111145,159.174713 
	C321.083984,169.271393 324.515015,179.878311 324.222473,192.094849 
	C323.590240,218.492844 301.379089,241.403168 274.937500,241.638977 
	C273.438751,239.883286 272.153656,238.263031 270.522552,237.149689 
	C267.174591,234.864395 263.116974,233.381424 260.304596,230.603271 
	C255.858658,226.211426 252.266403,220.876068 243.388168,224.890030 
	C244.970322,220.925507 246.753891,218.563690 246.660217,216.278824 
	C246.420425,210.429153 249.973724,208.431107 254.521942,207.051804 
	C256.742828,206.378265 259.042511,205.968613 261.277893,205.338013 
	C268.031158,203.432907 270.196625,199.525818 269.295074,192.626846 
	C268.967468,190.119644 269.535919,186.969116 270.887299,184.884811 
	C273.264893,181.217697 274.162262,177.661423 272.867981,173.569504 
	C271.764008,170.079193 270.601776,166.603256 269.330139,163.171051 
	C267.682587,158.724197 268.389343,157.647186 273.099823,156.975418 
	C275.732147,156.600006 278.295227,155.738739 280.889496,155.096420 
	C280.752777,154.669022 280.616058,154.241608 280.479340,153.814209 
	C272.420074,154.238586 272.420074,154.238586 271.408997,150.022308 
	C272.493317,149.983368 273.216431,149.964035 274.183472,150.065201 
	C275.294739,149.810669 276.162048,149.435669 277.488403,149.042252 
	C284.240173,149.658340 290.532867,150.292847 296.825592,150.927353 
z"/>
<path fill="#583227" opacity="1.000000" stroke="none" 
	d="
M274.994507,242.003876 
	C301.379089,241.403168 323.590240,218.492844 324.222473,192.094849 
	C324.515015,179.878311 321.083984,169.271393 314.163452,159.121582 
	C319.420624,164.575119 324.759705,170.378586 330.054077,176.780640 
	C331.073517,179.225906 332.137665,181.072601 333.201843,182.919281 
	C333.201843,182.919281 333.124146,182.901825 333.127075,183.285126 
	C334.580231,192.983185 336.997345,202.214859 335.001587,211.785919 
	C334.377991,214.776550 334.271332,217.874969 333.928040,220.924042 
	C331.667114,229.930618 325.028015,235.949936 318.670898,242.848114 
	C316.228241,244.984634 314.308624,246.791611 312.388977,248.598572 
	C312.388977,248.598572 312.398102,248.501251 312.099304,248.521851 
	C310.980377,249.228806 310.160278,249.915146 309.340210,250.601501 
	C309.340210,250.601501 309.366974,250.513321 308.992493,250.438141 
	C305.462921,249.889099 302.963654,250.551956 302.131836,254.105026 
	C301.606720,254.382919 301.081604,254.660812 299.942932,254.840881 
	C298.348907,254.791519 297.320618,254.664154 296.395386,254.915756 
	C287.420685,257.356201 278.472626,257.506317 269.456238,255.051987 
	C267.793793,254.599457 265.917847,254.931366 264.140442,254.901215 
	C262.603882,254.314728 261.067322,253.728256 259.064728,252.691986 
	C256.629883,251.243286 254.661057,250.244370 252.692230,249.245438 
	C252.692230,249.245438 252.775772,249.014755 252.679260,248.902283 
	C252.336685,248.541031 252.090607,248.292267 251.844543,248.043503 
	C251.844543,248.043503 252.052917,248.445053 251.708771,248.230118 
	C250.436005,247.496857 249.507370,246.978531 248.578751,246.460205 
	C248.578751,246.460205 248.698227,246.166763 248.582565,246.072052 
	C247.932236,245.670090 247.397583,245.362839 246.862915,245.055588 
	C246.862915,245.055588 246.935242,245.057022 246.851837,244.754776 
	C243.990631,241.833893 241.212845,239.215256 238.435059,236.596619 
	C238.435059,236.596619 238.479904,236.112030 238.476837,235.979156 
	C238.203186,235.577057 237.932617,235.307846 237.662048,235.038651 
	C237.662048,235.038651 237.842850,235.293930 237.682632,235.037506 
	C236.815048,233.960754 236.107681,233.140457 235.400314,232.320160 
	C235.400314,232.320160 235.547501,232.341843 235.539185,232.019958 
	C234.697662,228.417313 233.864456,225.136551 233.297241,222.067413 
	C235.103836,223.772232 236.658066,225.251648 238.182648,226.761002 
	C244.857468,233.369171 252.215958,238.750046 262.118347,240.194275 
	C262.908966,240.574127 263.455719,240.786545 264.317810,241.024506 
	C265.054749,241.064575 265.476318,241.079086 266.143524,241.239105 
	C266.922028,241.575058 267.454865,241.765533 268.425598,241.974319 
	C270.907135,241.996384 272.950806,242.000137 274.994507,242.003876 
z"/>
<path fill="#77491A" opacity="1.000000" stroke="none" 
	d="
M227.383926,213.196426 
	C223.327835,193.838058 228.681641,177.295242 242.675598,163.125793 
	C243.018326,163.016495 243.120178,163.120270 243.049698,163.462448 
	C242.140610,165.204651 241.497818,166.779312 240.430786,167.975586 
	C234.669952,174.434204 230.838837,182.048248 229.361191,190.364105 
	C228.042648,197.784637 228.417862,205.506119 227.883270,213.140076 
	C227.720886,213.185364 227.383926,213.196426 227.383926,213.196426 
z"/>
<path fill="#5B3910" opacity="1.000000" stroke="none" 
	d="
M334.121857,220.616592 
	C334.271332,217.874969 334.377991,214.776550 335.001587,211.785919 
	C336.997345,202.214859 334.580231,192.983185 333.135956,183.246307 
	C338.749298,195.155838 338.527893,207.670013 334.121857,220.616592 
z"/>
<path fill="#5B390D" opacity="1.000000" stroke="none" 
	d="
M264.459991,255.072601 
	C265.917847,254.931366 267.793793,254.599457 269.456238,255.051987 
	C278.472626,257.506317 287.420685,257.356201 296.395386,254.915756 
	C297.320618,254.664154 298.348907,254.791519 299.636841,254.846252 
	C288.260468,259.554138 276.534729,259.156067 264.459991,255.072601 
z"/>
<path fill="#82561C" opacity="1.000000" stroke="none" 
	d="
M296.645508,150.641220 
	C290.532867,150.292847 284.240173,149.658340 277.164124,149.065536 
	C275.567047,149.386383 274.753296,149.665543 273.939545,149.944702 
	C273.216431,149.964035 272.493317,149.983368 270.992432,149.985931 
	C269.116364,149.814987 268.018097,149.660828 267.214996,149.289612 
	C273.726654,148.454010 279.943146,147.835449 286.159607,147.216873 
	C289.594879,148.262939 293.030182,149.309021 296.645508,150.641220 
z"/>
<path fill="#583411" opacity="1.000000" stroke="none" 
	d="
M233.031250,221.855774 
	C233.864456,225.136551 234.697662,228.417313 235.527863,232.093491 
	C232.835999,226.331528 230.147156,220.174149 227.421112,213.606598 
	C227.383926,213.196426 227.720886,213.185364 228.110672,213.378296 
	C230.010727,216.332748 231.520996,219.094269 233.031250,221.855774 
z"/>
<path fill="#77491A" opacity="1.000000" stroke="none" 
	d="
M255.095123,153.008575 
	C255.623230,152.841904 256.151337,152.675247 257.216980,152.236542 
	C258.492889,151.793716 259.231262,151.622940 259.792053,151.768311 
	C254.116379,155.763046 248.618271,159.441666 243.120178,163.120270 
	C243.120178,163.120270 243.018326,163.016495 242.967438,162.964539 
	C246.179031,160.172318 249.441483,157.432022 253.159561,154.339966 
	C254.108505,153.661667 254.601822,153.335114 255.095123,153.008575 
z"/>
<path fill="#E7C566" opacity="1.000000" stroke="none" 
	d="
M285.780579,147.018692 
	C279.943146,147.835449 273.726654,148.454010 267.244019,149.308578 
	C266.977844,149.544586 266.915894,149.501526 266.540131,149.461456 
	C265.460327,149.666870 264.756287,149.912338 263.737274,150.155731 
	C263.003265,150.176483 262.584198,150.199326 262.096588,150.139832 
	C262.028015,150.057465 261.890442,149.893143 261.890442,149.893143 
	C269.380981,146.217422 277.196655,145.029739 285.780579,147.018692 
z"/>
<path fill="#583411" opacity="1.000000" stroke="none" 
	d="
M238.602570,236.885315 
	C241.212845,239.215256 243.990631,241.833893 246.851044,244.790955 
	C244.212479,242.477585 241.491302,239.825790 238.602570,236.885315 
z"/>
<path fill="#5B3B12" opacity="1.000000" stroke="none" 
	d="
M302.480469,254.069794 
	C302.963654,250.551956 305.462921,249.889099 309.036438,250.452026 
	C307.246277,251.705597 305.037720,252.870087 302.480469,254.069794 
z"/>
<path fill="#5B3B12" opacity="1.000000" stroke="none" 
	d="
M312.701660,248.455124 
	C314.308624,246.791611 316.228241,244.984634 318.486725,243.144104 
	C316.888489,244.844238 314.951416,246.577942 312.701660,248.455124 
z"/>
<path fill="#5B3910" opacity="1.000000" stroke="none" 
	d="
M333.149475,182.575714 
	C332.137665,181.072601 331.073517,179.225906 330.142761,177.121414 
	C331.216492,178.653122 332.156799,180.442642 333.149475,182.575714 
z"/>
<path fill="#583411" opacity="1.000000" stroke="none" 
	d="
M252.886627,249.517532 
	C254.661057,250.244370 256.629883,251.243286 258.738403,252.532867 
	C256.945770,251.812210 255.013382,250.800919 252.886627,249.517532 
z"/>
<path fill="#E7C566" opacity="1.000000" stroke="none" 
	d="
M259.969666,151.452179 
	C259.231262,151.622940 258.492889,151.793716 257.376373,152.004379 
	C258.397766,151.352951 259.797241,150.661621 261.543579,149.931717 
	C261.890442,149.893143 262.028015,150.057465 261.923218,150.330261 
	C261.202148,150.886093 260.585907,151.169144 259.969666,151.452179 
z"/>
<path fill="#583411" opacity="1.000000" stroke="none" 
	d="
M235.515839,232.625000 
	C236.107681,233.140457 236.815048,233.960754 237.554947,235.127838 
	C236.935440,234.626328 236.283401,233.778076 235.515839,232.625000 
z"/>
<path fill="#583411" opacity="1.000000" stroke="none" 
	d="
M248.776855,246.701828 
	C249.507370,246.978531 250.436005,247.496857 251.508072,248.334442 
	C250.759338,248.083603 249.867157,247.513535 248.776855,246.701828 
z"/>
<path fill="#5B3B12" opacity="1.000000" stroke="none" 
	d="
M309.639771,250.493835 
	C310.160278,249.915146 310.980377,249.228806 312.147888,248.526947 
	C311.643311,249.136353 310.791351,249.761276 309.639771,250.493835 
z"/>
<path fill="#E7C566" opacity="1.000000" stroke="none" 
	d="
M254.815460,153.106445 
	C254.601822,153.335114 254.108505,153.661667 253.312225,154.042358 
	C253.518112,153.799103 254.026962,153.501694 254.815460,153.106445 
z"/>
<path fill="#583411" opacity="1.000000" stroke="none" 
	d="
M247.041534,245.328903 
	C247.397583,245.362839 247.932236,245.670090 248.729279,246.131805 
	C248.401154,246.058258 247.810654,245.830246 247.041534,245.328903 
z"/>
<path fill="#583227" opacity="1.000000" stroke="none" 
	d="
M313.944275,158.665588 
	C313.551208,158.720871 313.019318,158.459213 312.238220,158.036133 
	C312.594513,158.032700 313.199951,158.190659 313.944275,158.665588 
z"/>
<path fill="#583411" opacity="1.000000" stroke="none" 
	d="
M237.710388,235.395599 
	C237.932617,235.307846 238.203186,235.577057 238.719147,236.001373 
	C238.562592,236.021835 238.160660,235.887207 237.710388,235.395599 
z"/>
<path fill="#583411" opacity="1.000000" stroke="none" 
	d="
M251.820740,248.378693 
	C252.090607,248.292267 252.336685,248.541031 252.794647,248.943970 
	C252.603317,248.970062 252.200119,248.841980 251.820740,248.378693 
z"/>
<path fill="#583227" opacity="1.000000" stroke="none" 
	d="
M310.936340,156.673340 
	C310.730255,156.745087 310.384369,156.483795 309.746704,156.078827 
	C309.902161,156.070206 310.349304,156.205261 310.936340,156.673340 
z"/>
<path fill="#583227" opacity="1.000000" stroke="none" 
	d="
M312.124390,157.659546 
	C311.864044,157.742584 311.614410,157.506149 311.176544,157.093124 
	C311.370575,157.057724 311.752838,157.198914 312.124390,157.659546 
z"/>
<path fill="#7C422C" opacity="1.000000" stroke="none" 
	d="
M259.792053,151.768311 
	C260.585907,151.169144 261.202148,150.886093 261.991760,150.412613 
	C262.584198,150.199326 263.003265,150.176483 263.986267,150.256165 
	C265.338776,150.072952 266.127319,149.787231 266.915894,149.501526 
	C266.915894,149.501526 266.977844,149.544586 266.948822,149.525635 
	C268.018097,149.660828 269.116364,149.814987 270.631226,150.005524 
	C272.420074,154.238586 272.420074,154.238586 280.479340,153.814209 
	C280.616058,154.241608 280.752777,154.669022 280.889496,155.096420 
	C278.295227,155.738739 275.732147,156.600006 273.099823,156.975418 
	C268.389343,157.647186 267.682587,158.724197 269.330139,163.171051 
	C270.601776,166.603256 271.764008,170.079193 272.867981,173.569504 
	C274.162262,177.661423 273.264893,181.217697 270.887299,184.884811 
	C269.535919,186.969116 268.967468,190.119644 269.295074,192.626846 
	C270.196625,199.525818 268.031158,203.432907 261.277893,205.338013 
	C259.042511,205.968613 256.742828,206.378265 254.521942,207.051804 
	C249.973724,208.431107 246.420425,210.429153 246.660217,216.278824 
	C246.753891,218.563690 244.970322,220.925507 243.388168,224.890030 
	C252.266403,220.876068 255.858658,226.211426 260.304596,230.603271 
	C263.116974,233.381424 267.174591,234.864395 270.522552,237.149689 
	C272.153656,238.263031 273.438751,239.883286 274.937500,241.638977 
	C272.950806,242.000137 270.907135,241.996384 268.323761,241.779617 
	C267.155365,241.408936 266.526611,241.251266 265.897888,241.093597 
	C265.476318,241.079086 265.054749,241.064575 264.069702,240.868927 
	C262.962280,240.467484 262.418365,240.247162 261.874451,240.026840 
	C252.215958,238.750046 244.857468,233.369171 238.182648,226.761002 
	C236.658066,225.251648 235.103836,223.772232 233.297241,222.067413 
	C231.520996,219.094269 230.010727,216.332748 228.273056,213.333023 
	C228.417862,205.506119 228.042648,197.784637 229.361191,190.364105 
	C230.838837,182.048248 234.669952,174.434204 240.430786,167.975586 
	C241.497818,166.779312 242.140610,165.204651 243.049698,163.462448 
	C248.618271,159.441666 254.116379,155.763046 259.792053,151.768311 
M266.000946,187.436722 
	C273.380951,177.963562 271.171021,167.168915 261.290253,164.426956 
	C253.644928,162.305328 243.433197,168.808472 240.923798,177.536270 
	C239.425491,182.747360 239.305191,187.770294 243.996689,191.701248 
	C248.752914,195.686478 253.016617,196.098999 259.168884,192.716049 
	C261.459259,191.456619 263.399567,189.560577 266.000946,187.436722 
z"/>
<path fill="#7C422C" opacity="1.000000" stroke="none" 
	d="
M274.183472,150.065186 
	C274.753296,149.665543 275.567047,149.386383 276.705078,149.083939 
	C276.162048,149.435669 275.294739,149.810669 274.183472,150.065186 
z"/>
<path fill="#7F452E" opacity="1.000000" stroke="none" 
	d="
M266.143524,241.239105 
	C266.526611,241.251266 267.155365,241.408936 267.885925,241.761307 
	C267.454865,241.765533 266.922028,241.575058 266.143524,241.239105 
z"/>
<path fill="#7F452E" opacity="1.000000" stroke="none" 
	d="
M262.118347,240.194275 
	C262.418365,240.247162 262.962280,240.467484 263.754333,240.843384 
	C263.455719,240.786545 262.908966,240.574127 262.118347,240.194275 
z"/>
<path fill="#77491A" opacity="1.000000" stroke="none" 
	d="
M266.540131,149.461456 
	C266.127319,149.787231 265.338776,150.072952 264.301208,150.258240 
	C264.756287,149.912338 265.460327,149.666870 266.540131,149.461456 
z"/>
<path fill="#AA6847" opacity="1.000000" stroke="none" 
	d="
M265.750244,187.695770 
	C263.399567,189.560577 261.459259,191.456619 259.168884,192.716049 
	C253.016617,196.098999 248.752914,195.686478 243.996689,191.701248 
	C239.305191,187.770294 239.425491,182.747360 240.923798,177.536270 
	C243.433197,168.808472 253.644928,162.305328 261.290253,164.426956 
	C271.171021,167.168915 273.380951,177.963562 265.750244,187.695770 
z"/>
</svg>